<?xml version="1.0" encoding="UTF-8"?> <svg xmlns="http://www.w3.org/2000/svg" width="200" height="40" viewBox="0 0 200 40" fill="none"><g clip-path="url(#clip0_3443_18505)"><path d="M63.9005 13.9972C64.2354 13.7214 64.5353 13.4058 64.7937 13.0574C65.7707 11.8706 66.4556 10.4712 66.7933 8.97154C67.0354 7.79016 66.9898 6.56787 66.6604 5.40781C66.3309 4.24775 65.7273 3.18396 64.9003 2.30621C63.3206 0.666533 61.321 0 57.9884 0H44.5844L42.4715 11.9976H36.6593L38.2057 18.1964H41.3784L38.9588 31.9136H54.5024C58.2416 31.9136 61.0278 30.9938 63.3473 29.0209C65.4018 27.2285 66.747 24.7602 67.1399 22.0623C67.3949 20.7768 67.336 19.4487 66.9682 18.1909C66.6004 16.9331 65.9344 15.7825 65.027 14.837C64.702 14.495 64.3211 14.211 63.9005 13.9972ZM51.1364 6.20543H56.2487C58.0684 6.20543 58.6616 6.652 59.0282 7.13191C59.2202 7.40117 59.3558 7.70648 59.4268 8.0295C59.4978 8.35251 59.5028 8.68655 59.4414 9.01153C59.2834 9.7708 58.8835 10.4584 58.3016 10.9711C57.7284 11.491 56.9686 11.9709 55.0823 11.9709H50.1166L51.1364 6.20543ZM59.7547 21.8623C59.5707 22.8682 59.0515 23.7821 58.2816 24.4551C57.3552 25.3216 56.1421 25.7082 54.3558 25.7082H47.6904L48.7769 19.5561L49.0168 18.1697H55.8355C58.1083 18.1697 58.8549 18.8362 59.2281 19.3628C59.49 19.7173 59.6726 20.124 59.7634 20.5552C59.8543 20.9865 59.8513 21.4323 59.7547 21.8623Z" fill="#1B0B3B"></path><path d="M21.529 0L0 31.9136H8.57828L13.6639 24.3751H26.2281L28.1077 31.9136H36.6593L28.6609 0H21.529ZM17.8498 18.1697L22.8421 10.7712L24.6617 18.1697H17.8498Z" fill="#1B0B3B"></path><path d="M107.558 0H77.6845L76.7646 5.19896H88.7622L84.0632 31.9269H89.902L94.6477 5.19896H106.645L107.558 0Z" fill="#1B0B3B"></path><path d="M120.376 11.9243C118.638 8.99154 115.883 7.52517 112.111 7.52517C110.258 7.49303 108.419 7.85901 106.72 8.59838C105.02 9.33775 103.499 10.4333 102.26 11.811C99.6431 14.5827 98.2087 18.2643 98.2603 22.0756C98.1377 24.8753 99.0917 27.6158 100.926 29.7341C102.706 31.6537 105.212 32.6068 108.405 32.6068C110.139 32.6531 111.86 32.2989 113.434 31.5717C115.009 30.8446 116.394 29.7641 117.483 28.4143L117.03 31.9136H122.475L126.655 8.2117H121.042L120.376 11.9243ZM116.577 24.995C115.753 25.8507 114.76 26.5242 113.66 26.9719C112.56 27.4197 111.378 27.6318 110.191 27.5945C106.225 27.5945 103.946 25.2683 103.946 21.3891C103.92 20.2368 104.124 19.0909 104.546 18.0185C104.969 16.9461 105.601 15.9688 106.405 15.1436C107.229 14.288 108.223 13.6145 109.322 13.1667C110.422 12.719 111.604 12.5069 112.791 12.5442C116.79 12.5442 119.129 14.957 119.129 18.7429C119.144 19.9029 118.926 21.0539 118.487 22.1279C118.049 23.2019 117.399 24.1768 116.577 24.995Z" fill="#1B0B3B"></path><path d="M141.498 11.811C145.358 11.811 146.831 12.8041 146.877 14.9237V15.1969L151.896 12.9641C151.41 9.0915 147.824 7.52515 141.952 7.52515C134.286 7.52515 129.541 10.1913 129.541 15.8235C129.541 19.6561 131.867 21.529 136.793 21.9356L141.765 22.3955C144.091 22.5755 145.098 23.2153 145.098 24.8084C145.098 27.1346 142.905 28.2743 138.479 28.2743C134.48 28.2743 132.873 27.3612 132.733 25.1749V24.9483C132.733 24.9483 127.694 27.1612 127.694 27.1879C128.134 31.1338 131.827 32.6068 137.692 32.6068C145.904 32.6068 151.023 29.874 151.023 24.0352C151.023 20.2026 148.837 18.6096 143.691 18.103L138.726 17.6498C136.439 17.4698 135.3 16.65 135.3 15.1436C135.34 12.9041 137.393 11.811 141.498 11.811Z" fill="#1B0B3B"></path><path d="M193.961 8.21168L182.73 26.1214L177.964 8.21168H165.967L167.167 1.38638L160.934 4.1325L160.215 8.21168H155.689L154.782 13.0907H159.355L157.542 23.3287C156.589 28.7542 159.128 32.5801 165.334 32.5801H170.166L168.713 27.3612H167C163.787 27.3612 162.761 26.0281 163.314 22.8688C163.867 19.7094 165.047 13.064 165.047 13.064H173.499L178.724 32.5801L174.505 39.3388H180.537L200 8.19169L193.961 8.21168Z" fill="#1B0B3B"></path><g style="mix-blend-mode:multiply"><path d="M27.4012 29.0742L35.073 25.6615L34.7531 24.3751H26.2281L27.4012 29.0742Z" fill="#1B0B3B"></path></g><g style="mix-blend-mode:multiply"><path d="M40.4852 23.2554L48.7836 19.5561L49.0235 18.1697H41.3784L40.4852 23.2554Z" fill="#1B0B3B"></path></g></g><defs><clipPath id="clip0_3443_18505"><rect width="200" height="39.3655" fill="white"></rect></clipPath></defs></svg> 