<?xml version="1.0" encoding="UTF-8"?> <svg xmlns="http://www.w3.org/2000/svg" width="200" height="20" viewBox="0 0 200 20" fill="none"><path d="M10.1333 8.55424V8.4211C12.1067 7.70218 13.3467 6.69037 13.2933 4.18746C13.2267 1.56474 10.3067 0.832505 8.49333 0.832505H0.0933334V1.36504C0.533333 1.39167 1.29333 1.56474 1.81333 1.77775C2.4 2.01739 2.57333 2.45673 2.57333 3.00258V15.5038C2.57333 16.0363 2.4 16.4624 1.81333 16.6754C1.49333 16.7952 0.44 16.9683 0 16.9949V17.5274H8.53333C10.8667 17.5274 13.88 16.236 13.88 13.0941C13.8667 10.0054 11.8667 8.8205 10.1333 8.55424ZM7.48 16.8618C6.04 16.8618 5.34667 16.4757 5.17333 15.3707V1.55143C5.76 1.5248 6.76 1.49817 7.18667 1.49817C8.70667 1.49817 10.3467 2.2304 10.3467 4.65343C10.3467 5.95814 9.94667 7.10308 8.97333 7.75544C8.42667 8.08827 7.10667 8.2214 6.33333 8.24803V8.72731C7 8.78056 8.18667 8.94032 8.8 9.16665C10.5333 9.83231 11.16 11.0571 11.16 12.6148C11.1467 14.6118 10.3867 16.8618 7.48 16.8618ZM24.8 0.446419C22.4267 0.446419 20.2667 1.29847 18.6 2.98926C17.0133 4.57355 16.2267 6.70368 16.2267 9.37966C16.2267 12.0423 17.2267 14.1325 18.8533 15.6502C20.44 17.1413 22.48 17.9534 24.7067 17.9534C27.2267 17.9534 29.2133 17.0748 30.8133 15.6103C32.6 13.8663 33.36 11.6429 33.36 9.10008C33.36 6.70368 32.48 4.45373 31.0267 3.00258C29.1867 1.20528 27.1067 0.446419 24.8 0.446419ZM24.8 17.1813C20.9733 17.1813 19.1867 13.6133 19.1867 9.24653C19.1867 4.17415 21.32 1.19197 24.8 1.19197C28.8667 1.19197 30.3867 5.15934 30.3867 9.14002C30.3867 13.7065 28.6 17.1813 24.8 17.1813ZM48.7467 12.8012H49.3333L48.96 17.554H34.96V17.0215C35.4 16.9949 36.4 16.8751 36.72 16.7552C37.3067 16.5289 37.48 16.0763 37.48 15.5304V3.06914C37.48 2.53661 37.3333 2.11058 36.72 1.84432C36.28 1.64462 35.4 1.40498 34.96 1.37835V0.845818H42.6267V1.37835C42.1867 1.40498 41.28 1.57805 40.84 1.7245C40.2267 1.9242 40.08 2.40348 40.08 2.94932V14.6517C40.08 16.7286 40.3467 16.9017 43 16.9017C44.4267 16.9017 46.1067 16.7819 46.6 16.2627C47.2533 15.5704 48.4933 13.6399 48.7467 12.8012ZM64.8933 12.8012H65.48L65.1067 17.554H51.1067V17.0215C51.5467 16.9949 52.5467 16.8751 52.8667 16.7552C53.4533 16.5289 53.6267 16.0763 53.6267 15.5304V3.06914C53.6267 2.53661 53.48 2.11058 52.8667 1.84432C52.4267 1.64462 51.5467 1.40498 51.1067 1.37835V0.845818H58.8V1.37835C58.36 1.40498 57.4533 1.57805 57.0133 1.7245C56.4 1.9242 56.2533 2.40348 56.2533 2.94932V14.6517C56.2533 16.7286 56.52 16.9017 59.1733 16.9017C60.6 16.9017 62.28 16.7819 62.7733 16.2627C63.4 15.5704 64.6533 13.6399 64.8933 12.8012ZM179.267 12.9743L179.907 13.3204C178.907 15.597 176.947 17.9268 173.213 17.9268C168.387 17.9268 165.107 14.5985 165.107 9.40629C165.107 4.36054 168.813 0.526299 173.733 0.526299C175.08 0.526299 176.693 1.16534 177.44 1.84432L178.173 0.592865H179.267V6.63712H178.68C177.8 3.80138 176.133 1.23191 172.973 1.23191C170.467 1.23191 168.053 3.65493 168.053 9.20659C168.053 13.6399 170.72 16.6487 173.933 16.6487C176.92 16.6487 178.32 15.1044 179.267 12.9743ZM197.52 2.89607V15.4505C197.52 15.9831 197.72 16.3825 198.28 16.6487C198.573 16.7952 199.56 16.9949 200 17.0215V17.554H192.4V17.0215C192.84 16.9949 193.84 16.9017 194.16 16.7819C194.747 16.5555 194.92 16.1162 194.92 15.5837V9.27316H186.467V15.4639C186.467 15.9964 186.667 16.4224 187.227 16.6621C187.52 16.7819 188.547 17.0082 188.987 17.0348V17.5674H181.387V17.0348C181.827 17.0082 182.787 16.915 183.107 16.7952C183.693 16.5689 183.867 16.1295 183.867 15.597V3.01589C183.867 2.48336 183.693 2.05733 183.107 1.81769C182.693 1.64462 181.827 1.40498 181.387 1.37835V0.845818H188.987V1.37835C188.547 1.40498 187.667 1.55142 187.227 1.69787C186.613 1.89757 186.467 2.36354 186.467 2.89607V8.44773H194.92V3.01589C194.92 2.48336 194.72 2.05733 194.16 1.81769C193.747 1.64462 192.84 1.40498 192.4 1.37835V0.845818H200V1.37835C199.56 1.40498 198.72 1.55142 198.28 1.69787C197.667 1.88426 197.52 2.35022 197.52 2.89607ZM107.4 8.55424V8.4211C109.373 7.70218 110.613 6.69037 110.56 4.18746C110.493 1.56474 107.573 0.832505 105.76 0.832505H97.3733V1.36504C97.8133 1.39167 98.5733 1.56474 99.0933 1.77775C99.68 2.01739 99.8533 2.45673 99.8533 3.00258V15.5038C99.8533 16.0363 99.68 16.4624 99.0933 16.6754C98.7733 16.7952 97.72 16.9683 97.28 16.9949V17.5274H105.813C108.147 17.5274 111.16 16.236 111.16 13.0941C111.147 10.0054 109.133 8.8205 107.4 8.55424ZM104.747 16.8618C103.307 16.8618 102.613 16.4757 102.44 15.3707V1.55143C103.027 1.5248 104.027 1.49817 104.453 1.49817C105.973 1.49817 107.613 2.2304 107.613 4.65343C107.613 5.95814 107.213 7.10308 106.24 7.75544C105.693 8.08827 104.373 8.2214 103.6 8.24803V8.72731C104.267 8.78056 105.453 8.94032 106.067 9.16665C107.8 9.83231 108.427 11.0571 108.427 12.6148C108.427 14.6118 107.667 16.8618 104.747 16.8618ZM92.3467 17.9401L92.56 18.3662C92.56 18.3662 89.3067 20.5895 86.7333 19.0851C84.7467 17.9268 82.9867 15.7967 81.9867 14.4787C80.6533 12.7213 78.7067 10.2717 77.6933 8.74062C76.28 9.63262 75.7733 10.9639 75.7733 12.5749C75.7733 14.5452 76.92 16.0496 78.92 16.0496C79.7333 16.0496 80.5333 15.81 81.2 15.3573L81.64 15.9032C80.6267 16.7819 79.4 17.5274 77.8933 17.5274C75.64 17.5274 73.3067 16.3292 73.3067 13.5734C73.3067 11.2968 74.6533 9.95213 77.3467 8.24803C76.12 6.35754 75.6133 5.3191 75.6133 4.1209C75.6133 1.93751 77.56 0.433105 79.7467 0.433105C81.8533 0.433105 82.7733 2.01739 82.7733 3.64162C82.7733 4.79988 82.0933 5.94482 80.7867 6.95664L80.4133 6.4241C81.28 5.63862 81.6667 4.72 81.6667 3.57505C81.6667 2.01739 80.8533 1.17865 79.8 1.17865C78.2133 1.17865 77.9333 2.73631 77.9333 3.4286C77.9333 4.30728 78.2533 5.23922 79.04 6.45073L79.08 6.50398L79.2933 6.8235L79.84 7.6223C81.3067 9.77906 82.3067 11.0438 83.8 12.8944C84.8267 11.4299 85.7467 9.63262 85.7467 8.52761C85.7467 7.95514 84.84 7.56905 83.5867 7.30278V6.79688H90.48V7.30278C89.1067 7.44923 87.9867 7.60899 87.2133 8.47436C86.52 9.25984 85.7067 11.5897 84.2133 13.387C88.7867 19.9638 91.44 18.2863 92.3467 17.9401ZM79.0133 6.46404C79.0267 6.47736 79.04 6.49067 79.0533 6.5173L79.0133 6.46404ZM157.24 1.37835C157.8 1.40498 159.28 1.81769 159.733 2.11058C160.267 2.45673 160.573 3.65493 160.573 5.41229V13.7065L150.333 0.832505H145.28V1.36504C145.947 1.39167 147.32 1.97745 147.907 2.44342C148.4 2.8295 148.693 3.66824 148.693 4.37385V11.4166C148.693 13.3204 148.707 14.0793 148.213 15.557C147.72 17.0082 144.787 16.915 144.013 16.0097C143.573 15.4905 143.213 14.7982 143.013 14.3189C142.107 12.0423 140.12 6.87676 137.627 0.566239H136.693C134.827 5.23922 132.8 10.4314 131.053 14.6384C130.68 15.4905 130.24 16.2094 129.653 16.5422C129.387 16.6887 128.733 16.915 127.92 15.8766L122.773 8.94032C125.587 8.19478 126.347 6.75694 126.36 4.68006C126.36 3.60168 126.04 2.74962 125.107 2.01739C124.04 1.17865 122.707 0.819192 120.04 0.819192H112.707V1.35173C114.8 1.55143 115.32 1.80438 115.32 3.53511V13.9861C115.32 16.8484 115.053 16.7552 112.707 16.9949V17.5274H120.373V17.0082C118.187 16.7419 117.827 16.8618 117.827 14.8115L117.84 1.51148C121.667 1.3251 123.573 1.84432 123.64 5.01289C123.667 6.23772 123.307 7.27616 122.027 7.94182C121.16 8.39448 120.16 8.43441 118.987 8.43441V8.94032C118.987 8.94032 119.773 8.9137 120.04 9.2199C120.987 10.2983 126.2 17.5674 126.2 17.5674H127.947H129.667H134.68V17.0348C133.827 16.9816 131.907 16.5955 131.907 15.7168C131.907 15.3707 132 14.8914 132.173 14.3455C132.4 13.6133 132.693 12.7746 133.16 11.6562H139.187L140.707 15.5171C140.787 15.7168 140.8 15.9032 140.8 16.0763C140.8 16.6887 139.187 16.9816 138.32 17.0348V17.5674H152.96V17.0348C152.52 17.0082 150.853 16.5955 150.44 16.2493C149.907 15.81 149.613 14.7582 149.613 12.8944V3.9212L160.6 17.7271H161.507V5.26584C161.507 3.65493 161.653 2.40348 162.32 1.99076C162.707 1.75112 164.133 1.40498 164.573 1.37835V0.845818H157.267V1.37835H157.24ZM133.467 10.8175L136.133 3.98776L138.853 10.8175H133.467Z" fill="#1B0B3B"></path></svg> 