<?xml version="1.0" encoding="UTF-8"?> <svg xmlns="http://www.w3.org/2000/svg" width="200" height="44" viewBox="0 0 200 44" fill="none"><path d="M13.5593 29.1993C20.1335 29.1993 22.7015 25.1931 22.7015 18.3108C22.7015 11.4284 19.7226 6.70311 13.7647 6.70311H7.08776V29.1993H13.5593ZM0.102667 0.745239H14.5865C23.8315 0.745239 29.7894 8.14127 29.7894 18.3108C29.7894 23.9605 27.8376 28.7884 24.2424 31.87C21.6743 34.0272 18.3872 35.1571 13.9702 35.1571H-6.10352e-05L0.102667 0.745239Z" fill="#1B0B3B"></path><path d="M49.7175 22.9333C49.7175 18.1054 47.4576 14.8182 43.4514 14.8182C39.4453 14.8182 37.1854 18.1054 37.1854 22.9333C37.1854 27.7612 39.4453 30.9456 43.4514 30.9456C47.4576 30.9456 49.7175 27.7612 49.7175 22.9333ZM30.5084 22.9333C30.5084 15.5373 35.7473 9.88757 43.4514 9.88757C51.1556 9.88757 56.3944 15.64 56.3944 22.9333C56.3944 30.2266 51.1556 35.979 43.4514 35.979C35.7473 35.979 30.5084 30.3293 30.5084 22.9333Z" fill="#1B0B3B"></path><path d="M57.4216 22.9333C57.4216 15.5373 62.2496 9.88757 69.7483 9.88757C76.1171 9.88757 80.1232 13.5856 80.945 18.9271H74.5762C74.1653 16.6672 72.3164 15.1264 70.0565 15.1264C66.0503 15.1264 64.0986 18.2081 64.0986 22.9333C64.0986 27.6585 66.0503 30.7401 69.9537 30.7401C72.6245 30.7401 74.4735 29.3021 74.8844 26.5286H81.2532C80.8423 31.7674 76.7334 35.979 70.0565 35.979C62.3523 35.979 57.5244 30.3293 57.4216 22.9333Z" fill="#1B0B3B"></path><path d="M98.4078 35.26V32.3837H98.3051C96.6616 34.6436 94.7098 35.979 91.2173 35.979C85.6703 35.979 82.5886 32.4865 82.5886 27.0422V10.5039H89.0601V25.9122C89.0601 28.7884 90.2928 30.432 93.169 30.432C96.2507 30.432 98.0997 28.0694 98.0997 24.7823V10.5039H104.674V35.26H98.4078Z" fill="#1B0B3B"></path><path d="M136.723 35.2599H143.297V10.5039H136.723V35.2599ZM136.723 7.01135H143.297V0.848022H136.723V7.01135Z" fill="#1B0B3B"></path><path d="M163.328 21.8033C163.328 18.208 161.376 15.1264 157.473 15.1264C154.186 15.1264 151.926 17.6945 151.926 21.9061C151.926 26.015 154.186 28.583 157.576 28.583C161.582 28.4803 163.328 25.5013 163.328 21.8033ZM145.968 35.979H152.44C152.953 37.5198 154.391 38.7525 157.37 38.7525C161.068 38.7525 162.917 37.0062 162.917 33.6164V30.9456H162.814C161.274 32.8973 158.808 33.9245 156.343 33.8218C150.796 33.8218 145.454 29.5075 145.454 22.0088C145.454 14.6128 149.872 9.88757 156.138 9.88757C159.219 9.88757 161.479 11.1203 163.02 13.1747H163.123V10.6066H169.491V33.5137C169.491 37.0062 168.361 39.3688 166.513 41.0124C164.458 42.9641 161.274 43.7859 157.576 43.7859C150.796 43.6832 146.687 40.8069 145.968 35.979Z" fill="#1B0B3B"></path><path d="M178.634 13.8936H178.736C180.277 11.3256 183.051 9.68208 186.03 9.88752C191.166 9.88752 194.556 13.791 194.556 19.1325V35.2599H187.981V20.057C187.981 17.3862 186.441 15.5372 183.667 15.5372C180.791 15.5372 178.634 17.8998 178.634 21.2897V35.3626H172.059V10.6066H178.428V13.8936H178.634Z" fill="#1B0B3B"></path><path d="M121.726 14.51C116.59 13.38 114.227 12.5582 114.227 9.78471C114.227 7.31938 116.692 5.77859 120.493 5.77859C123.883 5.77859 126.554 7.42215 127.067 10.6065H133.847C133.128 3.9296 128.197 0.231567 120.596 0.231567C112.994 0.231567 107.345 3.72416 107.345 10.6065C107.345 17.7971 112.994 19.4406 119.158 20.8787C124.396 22.1114 127.684 22.8304 127.684 26.1176C127.684 29.3019 124.499 30.5346 121.007 30.5346C116.076 30.5346 113.713 28.8911 113.2 24.7822H106.317C106.523 32.0754 111.864 36.1843 121.212 36.1843C129.019 36.1843 134.669 32.2809 134.669 25.2958C134.669 17.6944 128.813 15.9481 121.726 14.51Z" fill="#1B0B3B"></path><path d="M195.069 11.5309C195.172 11.2228 195.377 10.9146 195.583 10.7092C195.788 10.5037 196.097 10.2983 196.405 10.1956C196.713 10.0928 197.021 9.99011 197.432 9.99011C197.74 9.99011 198.151 10.0928 198.459 10.1956C198.767 10.2983 199.075 10.5037 199.281 10.7092C199.486 10.9146 199.692 11.2228 199.795 11.5309C199.897 11.8391 200 12.1473 200 12.5582C200 12.9691 199.897 13.2772 199.795 13.5854C199.692 13.8936 199.486 14.2017 199.281 14.4072C199.075 14.6126 198.767 14.818 198.459 14.9208C198.151 15.0235 197.843 15.1262 197.432 15.1262C197.124 15.1262 196.713 15.0235 196.405 14.9208C196.097 14.818 195.788 14.6126 195.583 14.4072C195.377 14.2017 195.172 13.8936 195.069 13.5854C194.967 13.2772 194.864 12.9691 194.864 12.5582C194.864 12.1473 194.967 11.8391 195.069 11.5309ZM195.48 13.3799C195.583 13.6881 195.686 13.8936 195.891 14.099C196.097 14.3044 196.302 14.4072 196.507 14.5099C196.713 14.6126 197.021 14.7154 197.329 14.7154C197.637 14.7154 197.843 14.6126 198.151 14.5099C198.356 14.4072 198.665 14.2017 198.767 14.099C198.87 13.9963 199.075 13.6881 199.178 13.3799C199.281 13.0718 199.384 12.8663 199.384 12.5582C199.384 12.25 199.281 11.9418 199.178 11.7364C199.075 11.4282 198.973 11.2228 198.767 11.0173C198.562 10.8119 198.356 10.7092 198.151 10.6065C197.946 10.5038 197.637 10.401 197.329 10.401C197.021 10.401 196.713 10.5038 196.507 10.6065C196.302 10.7092 195.994 10.9146 195.891 11.0173C195.788 11.1201 195.583 11.4282 195.48 11.7364C195.377 12.0446 195.275 12.25 195.275 12.5582C195.275 12.8663 195.377 13.0718 195.48 13.3799ZM197.535 11.0173C197.843 11.0173 198.151 11.1201 198.356 11.2228C198.562 11.3255 198.562 11.5309 198.562 11.8391C198.562 12.1473 198.459 12.25 198.356 12.4555C198.254 12.5582 198.048 12.6609 197.843 12.6609L198.665 13.9963H198.151L197.329 12.7636H196.816V13.9963H196.405V11.0173H197.535ZM197.329 12.3527C197.432 12.3527 197.535 12.3527 197.637 12.3527C197.74 12.3527 197.843 12.3527 197.843 12.25C197.946 12.25 197.946 12.1473 198.048 12.1473C198.048 12.0446 198.151 11.9418 198.151 11.8391C198.151 11.7364 198.151 11.6337 198.048 11.6337C198.048 11.531 197.946 11.5309 197.946 11.5309C197.843 11.5309 197.843 11.4282 197.74 11.4282C197.637 11.4282 197.535 11.4282 197.535 11.4282H196.918V12.3527H197.329Z" fill="#1B0B3B"></path></svg> 