<?xml version="1.0" encoding="UTF-8"?>
<svg width="220" height="60" viewBox="0 0 200 20" fill="none" xmlns="http://www.w3.org/2000/svg">
    <g clip-path="url(#clip0_3646_50029)">
        <path
            d="M72.9661 2.9353H85.5487V5.98788H76.6122V9.15212H84.4763V12.2049H76.6122V15.4802H85.6678V18.533H72.9661V2.9353Z"
            fill="currentColor"></path>
        <path
            d="M88.3669 2.9353H92.3228L96.7077 9.53093L101.093 2.9353H105.048V18.5331H101.402V8.34982L96.7077 15.0125H96.6123L91.9653 8.41684V18.5331H88.3669V2.9353Z"
            fill="currentColor"></path>
        <path
            d="M108.388 2.9353H115.204C119.184 2.9353 121.591 5.14124 121.591 8.32763V8.37223C121.591 11.9821 118.588 13.8538 114.847 13.8538H112.058V18.5331H108.388L108.388 2.9353ZM114.966 10.801C115.326 10.8437 115.693 10.8147 116.04 10.716C116.388 10.6173 116.71 10.451 116.984 10.2281C117.259 10.0051 117.48 9.73055 117.633 9.42226C117.786 9.11397 117.868 8.77893 117.873 8.43904V8.39443C117.873 6.85693 116.729 6.03248 114.894 6.03248H112.058V10.801H114.966Z"
            fill="currentColor"></path>
        <path
            d="M122.839 10.7787V10.7341C122.902 8.57859 123.86 6.53077 125.511 5.0249C127.161 3.51904 129.374 2.67356 131.68 2.66775C133.987 2.66195 136.204 3.49628 137.864 4.99382C139.523 6.49135 140.493 8.53432 140.569 10.6895V10.7341C140.506 12.8896 139.547 14.9375 137.897 16.4433C136.246 17.9492 134.033 18.7947 131.727 18.8005C129.421 18.8063 127.203 17.9719 125.544 16.4744C123.884 14.9769 122.914 12.9339 122.839 10.7787ZM136.732 10.7787V10.7341C136.755 10.0994 136.642 9.46682 136.399 8.87386C136.156 8.28091 135.788 7.73971 135.316 7.28242C134.845 6.82513 134.28 6.46107 133.655 6.21188C133.031 5.96269 132.359 5.83345 131.68 5.83183C131.005 5.82934 130.338 5.95464 129.717 6.20016C129.096 6.44569 128.535 6.80635 128.067 7.26036C127.599 7.71437 127.235 8.25231 126.996 8.8417C126.756 9.43108 126.647 10.0597 126.675 10.6895V10.7341C126.652 11.3688 126.765 12.0014 127.008 12.5943C127.252 13.1873 127.62 13.7284 128.091 14.1857C128.562 14.643 129.127 15.007 129.752 15.2562C130.376 15.5054 131.048 15.6346 131.727 15.6362C132.402 15.6388 133.069 15.5135 133.69 15.268C134.311 15.0225 134.873 14.6618 135.34 14.2078C135.808 13.7538 136.172 13.2159 136.412 12.6265C136.651 12.0372 136.76 11.4086 136.732 10.7787Z"
            fill="currentColor"></path>
        <path
            d="M140.791 2.93534H144.723L148.178 13.3858L151.92 2.9353H155.065L158.807 13.3858L162.262 2.93534H166.099L160.403 18.5331H157.21L153.445 8.48363L149.68 18.5331H146.486L140.791 2.93534Z"
            fill="currentColor"></path>
        <path
            d="M167.783 2.9353H180.365V5.98788H171.429V9.15212H179.293V12.2049H171.429V15.4802H180.485V18.533H167.783V2.9353Z"
            fill="currentColor"></path>
        <path
            d="M183.184 2.9353H190.81C191.692 2.88354 192.576 2.99678 193.411 3.2684C194.246 3.54002 195.014 3.96455 195.671 4.51718C196.152 4.99203 196.526 5.55216 196.772 6.16449C197.018 6.77682 197.13 7.42896 197.101 8.0824V8.127C197.155 9.18793 196.834 10.2359 196.188 11.1096C195.542 11.9833 194.607 12.6343 193.527 12.9623L197.602 18.533H193.312L189.737 13.5417H186.854V18.533H183.184L183.184 2.9353ZM190.571 10.5114C192.359 10.5114 193.383 9.61989 193.383 8.30542V8.26082C193.383 6.79012 192.287 6.03247 190.5 6.03247H186.854V10.5114H190.571Z"
            fill="currentColor"></path>
        <path
            d="M67.515 2.97353C50.5689 6.70906 50.7039 -1.14835 36.3461 0.505834L28.9934 3.69933C44.1058 1.19021 44.425 10.8013 64.8471 5.39636C65.7774 5.15015 66.6598 4.91299 67.515 4.70925L67.515 2.97353Z"
            fill="currentColor"></path>
        <path
            d="M67.515 6.68995C64.5082 7.03936 61.5347 7.60472 58.6208 8.38102C37.1241 14.0299 37.7026 4.68157 21.8308 6.8292L14.4901 10.0227C30.0227 8.06048 30.661 17.146 51.7698 11.7197C58.6514 9.95068 63.5266 9.45969 67.515 9.68576V6.68995Z"
            fill="currentColor"></path>
        <path
            d="M67.5152 13.6385C62.2691 12.5342 56.189 11.8786 45.1723 14.7045C23.3602 20.2997 23.7073 11.1391 7.33943 13.1527L0 16.3462C15.8598 14.4429 16.6577 23.4159 38.1732 18.0433C54.1295 14.0589 59.6353 16.9595 67.5152 18.4912L67.5152 13.6385Z"
            fill="currentColor"></path>
        <path
            d="M198.564 5.62026C198.28 5.62018 198.003 5.54139 197.766 5.39384C197.53 5.2463 197.346 5.03663 197.238 4.79134C197.129 4.54605 197.101 4.27616 197.156 4.01578C197.212 3.7554 197.348 3.51623 197.549 3.32851C197.75 3.14078 198.006 3.01293 198.284 2.96112C198.563 2.90931 198.851 2.93586 199.114 3.03742C199.376 3.13897 199.6 3.31098 199.758 3.53169C199.916 3.7524 200 4.01189 200 4.27738C200 4.63339 199.848 4.9747 199.579 5.22644C199.31 5.47818 198.945 5.61981 198.564 5.62026ZM198.564 3.14279C198.324 3.14287 198.089 3.20951 197.89 3.33429C197.69 3.45907 197.535 3.63639 197.443 3.84381C197.351 4.05124 197.327 4.27945 197.374 4.49961C197.421 4.71976 197.537 4.92196 197.706 5.08063C197.876 5.23931 198.093 5.34733 198.328 5.39105C198.564 5.43476 198.808 5.4122 199.029 5.32623C199.251 5.24025 199.441 5.09471 199.574 4.90801C199.707 4.72132 199.778 4.50186 199.778 4.27738C199.778 3.97643 199.65 3.68791 199.422 3.47519C199.195 3.26246 198.886 3.14291 198.564 3.14279Z"
            fill="currentColor"></path>
        <path
            d="M198.052 3.59189H198.699C198.853 3.58399 199.003 3.63301 199.119 3.7283C199.158 3.76723 199.189 3.81309 199.21 3.86328C199.231 3.91346 199.241 3.96697 199.239 4.02074V4.0248C199.242 4.12025 199.209 4.21369 199.146 4.28889C199.083 4.36408 198.994 4.41629 198.894 4.43644L199.287 4.95024H198.984L198.627 4.47726H198.307V4.95024H198.052L198.052 3.59189ZM198.681 4.26579C198.863 4.26579 198.98 4.17593 198.98 4.03871V4.03462C198.98 3.88922 198.867 3.80918 198.679 3.80918H198.307V4.26579H198.681Z"
            fill="currentColor"></path>
    </g>
    <defs>
        <clipPath id="clip0_3646_50029">
            <rect width="200" height="19.5146" fill="currentColor" transform="translate(0 0.26709)"></rect>
        </clipPath>
    </defs>
</svg>