<?xml version="1.0" encoding="UTF-8"?>
<svg width="102" height="50" viewBox="0 0 102 100" fill="none" xmlns="http://www.w3.org/2000/svg">
    <path
        d="M8.00366 23.0902C8.48008 22.2581 9.0756 21.426 9.55202 20.7128C9.0756 21.426 8.48008 22.2581 8.00366 23.0902Z"
        fill="currentColor"></path>
    <path
        d="M14.6733 14.5315C15.6262 13.5806 16.579 12.6296 17.6509 11.6786C16.6981 12.5107 15.6262 13.4617 14.6733 14.5315Z"
        fill="currentColor"></path>
    <path
        d="M39.5661 59.7026C39.0897 64.3386 38.256 68.9746 36.4694 73.3729C35.7548 75.0371 34.9211 76.5823 33.611 77.8899C32.539 79.0786 31.2289 78.8409 30.6334 77.2956C30.0378 75.988 29.9187 74.4427 30.0378 73.0162C30.1569 69.9255 30.8716 67.0726 31.8244 64.2197C33.7301 58.1572 36.4694 52.4514 39.5661 46.9833C39.5661 46.9833 39.6853 46.8645 39.6853 46.7456C39.6853 47.6966 39.8044 48.6475 39.8044 49.4796C40.0426 52.9268 39.9235 56.3742 39.5661 59.7026Z"
        fill="currentColor"></path>
    <path
        d="M39.5661 59.7026C39.0897 64.3386 38.256 68.9746 36.4694 73.3729C35.7548 75.0371 34.9211 76.5823 33.611 77.8899C32.539 79.0786 31.2289 78.8409 30.6334 77.2956C30.0378 75.988 29.9187 74.4427 30.0378 73.0162C30.1569 69.9255 30.8716 67.0726 31.8244 64.2197C33.7301 58.1572 36.4694 52.4514 39.5661 46.9833C39.5661 46.9833 39.6853 46.8645 39.6853 46.7456C39.6853 47.6966 39.8044 48.6475 39.8044 49.4796C40.0426 52.9268 39.9235 56.3742 39.5661 59.7026Z"
        fill="currentColor"></path>
    <path
        d="M101.5 49.5985C101.5 77.4145 78.8703 100 51 100C23.1297 100 0.5 77.4145 0.5 49.5985C0.5 49.3608 0.5 49.1229 0.5 48.8852C0.619104 40.3264 2.88207 31.8865 7.1698 24.5165C7.28891 24.3976 7.40801 24.16 7.52712 24.0411C7.64622 23.9223 7.76532 23.6845 7.76532 23.5656C7.76532 23.4467 7.88442 23.3278 8.00352 23.0901C8.36084 22.4957 8.71815 21.9014 9.19456 21.307C9.31367 21.0693 9.43277 20.9504 9.55188 20.7127C9.67098 20.5938 9.67098 20.475 9.79008 20.475C10.0283 20.1184 10.3856 19.6429 10.6238 19.2863C10.7429 19.1674 10.9811 19.0484 11.2193 19.0484C13.7205 18.9296 16.2217 19.1673 18.6038 19.7616C22.6533 20.7126 26.4646 22.6146 29.9186 25.3487C34.6828 29.1526 37.5413 34.1452 38.8514 40.0888C38.8514 40.3265 38.8514 40.5643 38.7323 40.802C36.7076 44.0115 34.8019 47.34 33.1344 50.7873C30.6333 55.8987 28.4894 61.0102 27.1792 66.4782C26.4646 69.2123 25.9882 71.9463 26.2264 74.7993C26.3455 76.5823 26.5837 78.3655 27.5365 79.9108C28.6085 81.6939 30.0377 82.7637 32.1816 82.8826C33.73 83.0015 35.1592 82.4071 36.3502 81.3372C38.0177 79.9107 39.0896 78.1276 40.0424 76.1068C41.4717 73.0162 42.3054 69.8067 42.901 66.4782C43.6156 62.9121 43.9729 59.346 44.092 55.7798C44.3302 51.1438 44.2111 46.5079 43.4965 41.8719C43.3774 41.5153 43.4965 41.1586 43.7347 40.9208C46.2358 37.117 48.9752 33.3131 52.0719 29.9847C54.2158 27.7262 56.4788 25.7053 59.2182 24.2788C61.2429 23.209 63.3868 22.6146 65.7689 22.6146C69.2229 22.6146 71.605 24.1599 73.0342 27.2506C74.1061 29.5092 74.4635 31.8866 74.4635 34.3829C74.3444 39.4944 73.1533 44.3681 70.4139 48.7663C67.7936 53.0457 63.8632 55.7798 58.8609 56.8497C56.1215 57.444 53.5012 57.2063 51 56.1365C50.4045 55.8987 49.9281 55.4232 49.3326 55.1854C48.6179 54.8288 47.9033 54.8288 47.3078 55.3043C46.7123 55.6609 46.355 56.3741 46.355 57.0874C46.355 57.8006 46.8314 58.2761 47.3078 58.6328C48.2606 59.346 49.3325 59.9404 50.4045 60.297C54.5731 61.7234 58.6226 61.4856 62.6722 60.0592C68.1509 58.1572 72.0814 54.3533 74.7016 49.3607C77.3219 44.3681 78.6321 39.0189 78.3939 33.313C78.2748 30.3412 77.6793 27.4883 76.1309 24.8732C73.7488 20.7127 70.0566 18.6918 65.2925 18.9296C61.0047 19.0485 57.3125 20.5938 53.9776 23.2089C50.6427 25.7052 47.9033 28.7959 45.4021 32.1243C44.3302 33.5508 43.2583 34.8583 42.3054 36.4037C41.9481 35.4527 41.5908 34.5018 41.2335 33.6697C38.4941 27.7261 34.2064 23.209 28.7276 19.9995C26.3455 18.573 23.9634 17.5031 21.3432 16.7898C20.5094 16.5521 19.5566 16.3144 18.7229 16.1955C17.5318 15.9577 16.4599 15.839 15.2689 15.7201C15.1498 15.7201 14.9115 15.72 14.9115 15.6011V15.4823L15.0307 15.3634C15.0307 15.3634 15.0306 15.3634 15.1498 15.3634C16.1026 14.4125 17.1745 13.3426 18.1273 12.5105C18.2465 12.3916 18.3656 12.3917 18.4847 12.2728C18.6038 12.1539 18.7229 12.035 18.842 11.9161C27.8939 4.18948 39.4469 0.028969 51.3573 0.028969C78.8703 -0.922004 101.5 21.6637 101.5 49.5985Z"
        fill="currentColor"></path>
    <path
        d="M0.5 48.8853C0.738208 40.0888 2.88207 31.8866 7.1698 24.5166C2.88207 31.8866 0.619104 40.2077 0.5 48.8853Z"
        fill="currentColor"></path>
    <path
        d="M10.6238 19.2864C10.6238 19.2864 10.6238 19.1675 10.6238 19.2864C10.3856 19.5241 10.1474 19.9995 9.79004 20.3561C10.0282 19.9995 10.3856 19.643 10.6238 19.2864Z"
        fill="currentColor"></path>
    <path d="M14.6749 14.5314L14.5547 14.6513C14.4344 14.6513 14.5547 14.6514 14.6749 14.5314Z"
        fill="currentColor"></path>
    <path
        d="M28.0129 4.66504C24.5589 6.44811 21.3431 8.58786 18.4846 10.9653C21.3431 8.58786 24.5589 6.44811 28.0129 4.66504Z"
        fill="currentColor"></path>
    <path
        d="M39.5661 59.7026C39.0897 64.3386 38.256 68.9746 36.4694 73.3729C35.7548 75.0371 34.9211 76.5823 33.611 77.8899C32.539 79.0786 31.2289 78.8409 30.6334 77.2956C30.0378 75.988 29.9187 74.4427 30.0378 73.0162C30.1569 69.9255 30.8716 67.0726 31.8244 64.2197C33.7301 58.1572 36.4694 52.4514 39.5661 46.9833C39.5661 46.9833 39.6853 46.8645 39.6853 46.7456C39.6853 47.6966 39.8044 48.6475 39.8044 49.4796C40.0426 52.9268 39.9235 56.3742 39.5661 59.7026Z"
        fill="currentColor"></path>
    <path
        d="M39.5661 59.7026C39.0897 64.3386 38.256 68.9746 36.4694 73.3729C35.7548 75.0371 34.9211 76.5823 33.611 77.8899C32.539 79.0786 31.2289 78.8409 30.6334 77.2956C30.0378 75.988 29.9187 74.4427 30.0378 73.0162C30.1569 69.9255 30.8716 67.0726 31.8244 64.2197C33.7301 58.1572 36.4694 52.4514 39.5661 46.9833C39.5661 46.9833 39.6853 46.8645 39.6853 46.7456C39.6853 47.6966 39.8044 48.6475 39.8044 49.4796C40.0426 52.9268 39.9235 56.3742 39.5661 59.7026Z"
        fill="currentColor"></path>
</svg>