<?xml version="1.0" encoding="UTF-8"?>
<svg xmlns="http://www.w3.org/2000/svg" width="200" height="81" viewBox="0 0 200 81" fill="none">
    <g clip-path="url(#clip0_3466_17552)">
        <path fill-rule="evenodd" clip-rule="evenodd"
            d="M35.2909 47.3667V55.2903C33.9649 55.5798 32.6117 55.7261 31.2545 55.7267C21.9345 55.7267 13.4491 49.2176 11.7455 40.3685L8.02364 44.1376V55.7194H0V0.123047H8.02364V32.0467L24.0673 15.4067H35.2182L24.8818 26.3921C24.8818 26.3921 22.5309 28.8867 20.6655 31.6558C19.9273 32.7503 19.5255 34.5649 19.5255 35.8158C19.5255 38.2194 20.2655 40.5976 21.64 42.5703C24.6727 46.9249 30.2255 48.454 35.2909 47.3667ZM100.22 36.494C100.22 37.5362 99.8071 38.5359 99.0706 39.2734C98.3341 40.0109 97.335 40.4257 96.2927 40.4267C95.2505 40.4257 94.2513 40.0109 93.5149 39.2734C92.7784 38.5359 92.365 37.5362 92.3655 36.494C92.3655 34.3212 94.1236 32.5612 96.2927 32.5612C98.4618 32.5612 100.22 34.3212 100.22 36.494ZM96.3327 48.3449C99.4567 48.3425 102.452 47.0993 104.659 44.8888C106.867 42.6783 108.106 39.6815 108.104 36.5576C108.106 33.4337 106.867 30.4369 104.659 28.2264C102.452 26.0159 99.4567 24.7727 96.3327 24.7703C93.2088 24.7727 90.2137 26.0159 88.0063 28.2264C85.7989 30.4369 84.5599 33.4337 84.5618 36.5576C84.5606 38.1045 84.8642 39.6365 85.4551 41.066C86.046 42.4956 86.9127 43.7948 88.0058 44.8893C89.0988 45.9839 90.3968 46.8524 91.8256 47.4454C93.2543 48.0383 94.7859 48.3439 96.3327 48.3449ZM115.291 13.1449L115.425 36.5321C115.425 47.1321 106.86 55.7267 96.2927 55.7267C85.7255 55.7267 77.16 47.1321 77.16 36.5321C77.16 25.9321 85.7236 17.3412 96.2909 17.3412C100.373 17.3412 104.156 18.6267 107.262 20.814V0.123047H115.289L115.291 13.1449ZM138.487 48.5576C140.034 48.5566 141.565 48.251 142.994 47.6583C144.423 47.0655 145.721 46.1971 146.814 45.1027C147.907 44.0083 148.773 42.7094 149.364 41.28C149.955 39.8506 150.259 38.3189 150.258 36.7721C150.26 33.6482 149.021 30.6514 146.814 28.4409C144.606 26.2304 141.611 24.9873 138.487 24.9849C136.94 24.9858 135.409 25.2915 133.98 25.8843C132.551 26.4772 131.253 27.3457 130.16 28.4403C129.066 29.5348 128.2 30.834 127.608 32.2636C127.017 33.6932 126.714 35.2252 126.715 36.7721C126.714 38.319 127.017 39.8509 127.608 41.2804C128.2 42.7099 129.067 44.0089 130.16 45.1033C131.253 46.1977 132.551 47.0661 133.98 47.6588C135.409 48.2515 136.94 48.5569 138.487 48.5576ZM138.487 17.394C149.053 17.394 157.62 25.9703 157.62 36.5521L157.435 53.0267V55.7267H149.407V52.2812C146.206 54.5185 142.393 55.7157 138.487 55.7103C127.918 55.7103 119.353 47.1321 119.353 36.5521C119.353 25.9703 127.918 17.394 138.487 17.394ZM138.487 32.4958C139.531 32.4958 140.531 32.9102 141.269 33.6479C142.006 34.3856 142.421 35.3861 142.421 36.4294C142.421 37.4727 142.006 38.4732 141.269 39.2109C140.531 39.9486 139.531 40.363 138.487 40.363C137.444 40.363 136.443 39.9486 135.706 39.2109C134.968 38.4732 134.554 37.4727 134.554 36.4294C134.554 35.3861 134.968 34.3856 135.706 33.6479C136.443 32.9102 137.444 32.4958 138.487 32.4958ZM199.845 38.0849V60.423C199.845 72.5212 191 79.9267 180.718 79.9267H180.713C170.235 79.923 161.773 72.9049 161.602 62.6394H169.755C169.849 63.6867 169.971 64.5158 170.124 65.0285C171.429 69.4121 175.544 72.6321 180.72 72.6321C185.895 72.6321 190.011 69.414 191.316 65.0303C192.064 62.5212 192.044 58.5576 191.956 52.5394C188.805 54.5558 184.925 55.6885 180.72 55.6885C174.629 55.6885 169.225 53.3085 165.727 49.3067C163.145 46.354 161.593 42.5194 161.593 38.0849L161.547 17.4121H169.573C169.573 17.4121 169.04 37.154 170.124 40.7921C170.496 42.0467 171.107 43.2012 171.902 44.2176C173.88 46.7503 177.027 48.394 180.72 48.394C184.413 48.394 187.56 46.7503 189.538 44.2176C190.34 43.197 190.943 42.0351 191.316 40.7921C192.4 37.154 191.867 17.4103 191.867 17.4103H199.893L199.845 38.0849ZM75.1855 46.8085C76.3411 49.4509 78.076 51.7998 80.2618 53.6812C77.5564 55.0085 73.7164 55.9994 70.6618 55.9994C61.34 55.9994 52.8527 49.2176 51.1509 40.3685L47.4273 44.1376V55.7212H39.4055V0.123047H47.4273V32.0503L64.0182 15.4085H75.1691L64.2873 26.3958C64.2873 26.3958 61.9345 28.8885 60.0691 31.6576C59.3327 32.7521 58.9291 34.5667 58.9291 35.8176C58.9291 42.3376 64.1982 47.7012 70.7 47.7012C72.0145 47.7012 73.7436 47.3067 75.1855 46.8085Z"
            fill="#1B0B3B"></path>
    </g>
    <defs>
        <clipPath id="clip0_3466_17552">
            <rect width="200" height="80" fill="white" transform="translate(0 0.123047)"></rect>
        </clipPath>
    </defs>
</svg> 