<?xml version="1.0" encoding="UTF-8"?>
<svg width="141"
    height="26" viewBox="0 0 141 26" fill="none" xmlns="http://www.w3.org/2000/svg">
    <path d="M21.2727 25.0027L67.1971 21.0752H17.291L21.2727 25.0027Z"
        fill="currentColor">
    </path>
    <path
        d="M21.9143 5.06274V5.66697C21.0032 5.06273 20.1596 4.72705 19.0124 4.72705C15.5031 4.72705 12.8711 7.91608 12.8711 11.8101C12.8711 15.704 15.5368 18.8931 19.0124 18.8931C20.1596 18.8931 20.9694 18.5574 21.9143 17.9531V18.5574H24.9849V5.09631H21.9143V5.06274ZM19.0124 15.6369C17.2914 15.6369 16.0092 13.9585 16.0092 11.8101C16.0092 9.66166 17.2577 7.98321 19.0124 7.98321C20.7333 7.98321 21.948 9.66166 21.948 11.8101C21.948 13.9249 20.7333 15.6369 19.0124 15.6369Z"
        fill="currentColor"></path>
    <path
        d="M46.5471 5.06299V12.9852C46.5471 14.4622 45.5348 15.7378 44.0164 15.7378C42.5317 15.7378 41.4857 14.4958 41.4857 12.9852V5.06299H38.415V12.9852C38.415 16.2414 40.6421 18.8597 43.9152 18.8597C45.4336 18.8597 46.5134 18.0205 46.5134 18.0205V18.5241H49.584V5.06299H46.5471Z"
        fill="currentColor"></path>
    <path
        d="M75.1951 18.5238V10.6016C75.1951 9.12456 76.2074 7.84894 77.7258 7.84894C79.2105 7.84894 80.2566 9.09099 80.2566 10.6016V18.5238H83.3272V10.6016C83.3272 7.34541 81.1001 4.72705 77.827 4.72705C76.3086 4.72705 75.2288 5.56627 75.2288 5.56627V5.06274H72.1582V18.5238H75.1951Z"
        fill="currentColor"></path>
    <path
        d="M3.99661 18.5239V13.2872H6.25741L10.2054 18.5239H14.2208L9.46301 12.2129C10.9477 11.1387 11.9263 9.42674 11.9263 7.47975C11.9263 4.29072 9.29429 1.67236 6.08869 1.67236H0.791016V18.4903H3.99661V18.5239ZM3.99661 4.89496H6.08869C7.53965 4.89496 8.72065 6.06987 8.72065 7.51332C8.72065 8.95678 7.53965 10.1317 6.08869 10.1317H3.99661V4.89496Z"
        fill="currentColor"></path>
    <path
        d="M57.884 15.335C57.6141 15.5364 57.2429 15.6707 56.8717 15.6707C56.3656 15.6707 55.4208 15.3014 55.4208 14.0258V8.25196H58.0527V5.06293H55.4208V1.70605H52.3501V5.06293H50.7305V8.25196H52.3501V14.0593C52.3501 17.0805 54.6447 18.8597 56.9055 18.8597C57.749 18.8597 58.9301 18.5911 59.9086 18.0205L57.884 15.335Z"
        fill="currentColor"></path>
    <path
        d="M33.5891 5.06279L29.9111 9.76242V0.598145H26.7393V18.5239H29.9111V13.0186L34.4327 18.5239H38.7518L32.6106 11.3737L37.9082 5.06279H33.5891Z"
        fill="currentColor"></path>
    <path
        d="M65.004 4.72705C61.461 4.72705 58.8965 7.84895 58.8965 11.8101C58.8965 15.9726 62.1021 18.8931 65.3077 18.8931C66.9274 18.8931 69.0194 18.356 70.7403 15.8719L68.0409 14.3277C65.9488 17.416 62.4395 15.8383 62.0346 12.75H70.8753C71.6514 7.91608 68.4795 4.72705 65.004 4.72705ZM67.6697 10.0645H62.1358C62.7769 6.90902 67.0961 6.7076 67.6697 10.0645Z"
        fill="currentColor"></path>
    <path
        d="M93.1798 17.3827L88.2196 5.09651C88.1521 4.92866 88.0846 4.76082 88.0509 4.59298C88.0171 4.42513 87.9834 4.22372 87.9834 4.05587C87.9834 3.51877 88.1521 3.11595 88.5233 2.7467C88.8945 2.41101 89.3331 2.24316 89.9067 2.24316C90.3117 2.24316 90.6491 2.37743 90.8853 2.61241C91.1552 2.84739 91.3914 3.25022 91.5939 3.82089L94.9682 12.8509L98.2076 3.95516C98.41 3.31736 98.68 2.88096 98.9499 2.61241C99.2199 2.37743 99.591 2.24316 100.03 2.24316C100.603 2.24316 101.042 2.37743 101.346 2.67955C101.649 2.98167 101.818 3.3845 101.818 3.9216C101.818 4.12301 101.784 4.32442 101.751 4.55941C101.717 4.76082 101.649 4.9958 101.582 5.19721L96.7903 17.2484C96.5879 17.7855 96.3179 18.1883 96.048 18.4233C95.7443 18.6583 95.3731 18.7925 94.9345 18.7925C94.4958 18.7925 94.1584 18.6918 93.8884 18.4569C93.6522 18.2219 93.416 17.8862 93.1798 17.3827Z"
        fill="currentColor"></path>
    <path
        d="M106.238 16.3086C106.238 17.1478 106.103 17.752 105.833 18.1548C105.563 18.5577 105.125 18.7591 104.585 18.7591C104.011 18.7591 103.572 18.5577 103.302 18.1548C103.032 17.752 102.897 17.1478 102.897 16.3086V9.52766C102.897 8.68844 103.032 8.08421 103.302 7.68138C103.572 7.27856 104.011 7.07715 104.585 7.07715C105.158 7.07715 105.563 7.27856 105.833 7.68138C106.103 8.08421 106.238 8.68844 106.238 9.52766V16.3086Z"
        fill="currentColor"></path>
    <path
        d="M111.367 7.17776C111.772 6.84208 112.211 6.57353 112.683 6.40569C113.156 6.23784 113.662 6.13713 114.202 6.13713C115.754 6.13713 117.07 6.74137 118.15 7.98341C119.23 9.19188 119.736 10.7361 119.736 12.5823C119.736 14.3279 119.196 15.8049 118.082 17.0134C117.002 18.2219 115.686 18.8597 114.202 18.8597C113.594 18.8597 113.055 18.759 112.548 18.5576C112.042 18.3562 111.637 18.054 111.266 17.6512C111.03 18.0205 110.794 18.3226 110.49 18.524C110.22 18.7254 109.883 18.8261 109.545 18.8261C108.938 18.8261 108.499 18.6247 108.195 18.1883C107.892 17.7519 107.757 17.1141 107.757 16.2078V4.86152C107.757 3.98873 107.892 3.31736 108.195 2.88097C108.499 2.44457 108.938 2.24316 109.545 2.24316C110.153 2.24316 110.625 2.44457 110.895 2.88097C111.199 3.31736 111.334 3.95517 111.334 4.86152V7.17776H111.367ZM111.097 12.5152C111.097 13.4887 111.334 14.2943 111.806 14.865C112.278 15.4692 112.92 15.7714 113.662 15.7714C114.404 15.7714 115.045 15.4692 115.518 14.865C115.99 14.2608 116.26 13.4887 116.26 12.5152C116.26 11.5417 116.024 10.7361 115.552 10.1318C115.079 9.52758 114.438 9.22546 113.696 9.22546C112.92 9.22546 112.312 9.52758 111.84 10.1318C111.334 10.7361 111.097 11.5417 111.097 12.5152Z"
        fill="currentColor"></path>
    <path
        d="M123.785 13.5222C123.852 14.1936 124.358 14.7307 124.831 15.0999C125.303 15.4692 125.944 15.6706 126.72 15.6706C127.395 15.6706 128.138 15.4692 128.981 15.0999C129.825 14.6971 130.331 14.5293 130.5 14.5293C130.938 14.5293 131.276 14.6635 131.546 14.9321C131.816 15.2006 131.951 15.5363 131.951 15.9392C131.951 16.7112 131.411 17.3826 130.331 18.0204C129.251 18.6247 127.969 18.9603 126.518 18.9603C124.729 18.9603 123.245 18.3561 122.064 17.1476C120.883 15.9392 120.275 14.4286 120.275 12.6159C120.275 10.8031 120.849 9.25898 121.996 8.0505C123.144 6.84203 124.595 6.23779 126.315 6.23779C127.969 6.23779 129.386 6.80846 130.5 7.9498C131.613 9.09114 132.187 10.501 132.187 12.1459C132.187 12.683 132.052 13.0522 131.816 13.2872C131.579 13.4886 131.107 13.6229 130.398 13.6229H123.785V13.5222ZM123.65 11.4074H128.947C128.914 10.736 128.644 10.0646 128.138 9.59467C127.631 9.15827 127.058 8.92329 126.383 8.92329C125.708 8.92329 125.067 9.1247 124.595 9.5611C124.088 9.99749 123.785 10.7024 123.65 11.4074Z"
        fill="currentColor"></path>
    <path
        d="M133.199 16.1407V8.92341C133.199 8.05063 133.334 7.37924 133.638 6.97642C133.942 6.54003 134.38 6.33862 134.988 6.33862C135.359 6.33862 135.662 6.43933 135.966 6.60717C136.236 6.80858 136.506 7.07713 136.708 7.47995C137.08 7.07713 137.485 6.77501 137.89 6.5736C138.294 6.37219 138.733 6.27148 139.138 6.27148C139.644 6.27148 140.049 6.43932 140.42 6.80858C140.791 7.14426 140.96 7.58066 140.96 8.05062C140.96 8.75557 140.285 9.3598 138.969 9.86333C138.497 10.0312 138.126 10.1655 137.89 10.2997C137.451 10.5011 137.147 10.7361 136.978 11.0047C136.843 11.2732 136.742 11.7432 136.742 12.4146V16.1407C136.742 17.0135 136.607 17.6849 136.304 18.1212C136 18.5576 135.561 18.7591 134.954 18.7591C134.346 18.7591 133.908 18.5576 133.604 18.1212C133.368 17.6849 133.199 17.0135 133.199 16.1407Z"
        fill="currentColor"></path>
    <path
        d="M102.763 4.08952C102.763 3.58597 102.965 3.14955 103.336 2.78028C103.708 2.41101 104.146 2.24316 104.686 2.24316C105.192 2.24316 105.631 2.41101 106.002 2.78028C106.373 3.14955 106.542 3.58597 106.542 4.08952C106.542 4.59307 106.373 5.06305 106.002 5.39875C105.631 5.76802 105.192 5.93587 104.686 5.93587C104.146 5.93587 103.708 5.76802 103.336 5.39875C102.931 5.06305 102.763 4.62664 102.763 4.08952Z"
        fill="currentColor"></path>
</svg>