<?xml version="1.0" encoding="UTF-8"?>
<svg width="97" height="44" viewBox="0 0 97 44"
                                  fill="none" xmlns="http://www.w3.org/2000/svg">
                                  <path
                                    d="M0 43.4152H97V0.583984H0V43.4152ZM26.9058 29.8501C22.825 29.8501 19.5063 27.2266 18.4256 23.5356H17.5018V29.57H13.8113V13.1419H20.0372C21.0078 13.1419 21.8612 13.2774 22.5978 13.5489C23.3339 13.8193 23.9496 14.1892 24.4429 14.6574C24.9369 15.1251 25.3051 15.6719 25.5472 16.2949C25.7899 16.9187 25.9117 17.5847 25.9117 18.2896C25.9117 19.3571 25.6733 20.2891 25.1959 21.0857C24.7192 21.8822 24.0458 22.4459 23.1751 22.9227C22.8952 23.0882 22.5776 23.2386 22.1347 23.3548C22.9867 25.1582 24.7077 26.3467 26.9058 26.3467V29.8501ZM45.6204 29.5831H33.9375V13.1472H45.0828V16.3999H37.6289V19.6035H43.241V22.7569H37.6289V26.3058H45.6204V29.5831ZM57.4787 18.6662C58.0756 19.0129 58.8965 19.3022 59.9411 19.5326C60.5548 19.6816 61.1561 19.8831 61.7444 20.1388C62.3337 20.3952 62.8598 20.7289 63.3248 21.1417C63.7884 21.5539 64.1615 22.0621 64.4446 22.6643C64.7257 23.266 64.8667 23.9961 64.8667 24.8535C64.8667 25.5959 64.7006 26.2817 64.3689 26.9083C64.0368 27.5362 63.5862 28.0796 63.0135 28.542C62.4415 29.0045 61.7695 29.3637 60.9983 29.6191C60.227 29.8743 59.3942 30.002 58.4984 30.002C57.6689 30.002 56.915 29.9234 56.2348 29.7668C55.5551 29.6101 54.9413 29.4046 54.394 29.1481C53.847 28.893 53.3536 28.5999 52.9142 28.2696C52.4742 27.9403 52.0972 27.6018 51.7814 27.2557L54.1951 24.6556C54.4103 24.8876 54.6641 25.1229 54.9533 25.362C55.2432 25.6008 55.5666 25.8192 55.9237 26.0169C56.2806 26.2161 56.6701 26.3761 57.0931 26.4995C57.5153 26.6239 57.9677 26.6861 58.4488 26.6861C58.7304 26.6861 59.0125 26.6447 59.2946 26.5617C59.5762 26.4798 59.8338 26.3602 60.0658 26.203C60.2978 26.0458 60.485 25.8569 60.6262 25.6335C60.7662 25.4113 60.8369 25.1596 60.8369 24.8794C60.8369 24.269 60.5394 23.7945 59.9411 23.456C59.3437 23.1176 58.3993 22.7839 57.1052 22.4537C56.4745 22.3046 55.8911 22.09 55.3514 21.8099C54.8127 21.5294 54.3487 21.1908 53.9588 20.7945C53.5688 20.3986 53.2661 19.9453 53.0508 19.4332C52.8352 18.9227 52.7269 18.3533 52.7269 17.7254C52.7269 17.033 52.8517 16.3817 53.1004 15.7703C53.3488 15.1598 53.7263 14.6198 54.2318 14.1487C54.7378 13.679 55.3683 13.3077 56.1222 13.0358C56.8776 12.7628 57.7681 12.6268 58.7974 12.6268C59.6431 12.6268 60.3892 12.7137 61.0354 12.8873C61.6823 13.0609 62.234 13.2667 62.6899 13.5054C63.1462 13.7447 63.5187 13.993 63.8096 14.2485C64.0994 14.504 64.3194 14.7065 64.469 14.854L62.3047 17.2307C62.1212 17.0823 61.9105 16.9217 61.6703 16.748C61.4301 16.5749 61.1605 16.4143 60.8616 16.2653C60.5641 16.1169 60.2357 15.9929 59.88 15.8941C59.5222 15.7954 59.1449 15.7456 58.7472 15.7456C58.482 15.7456 58.2205 15.7866 57.9636 15.8696C57.706 15.952 57.4738 16.0639 57.2669 16.2031C57.06 16.344 56.8939 16.5095 56.7697 16.6989C56.645 16.8889 56.5824 17.0904 56.5824 17.3051C56.5824 17.8657 56.8819 18.319 57.4787 18.6662ZM85.4063 13.1472L79.5956 22.6836V29.5831H75.7958V22.7078L69.985 13.1472H74.2313L77.8327 19.3571L81.3334 13.1472H85.4063ZM21.5834 20.062C21.9851 19.6518 22.1857 19.1343 22.1857 18.5105C22.1857 17.8369 21.9851 17.303 21.5834 16.9086C21.182 16.5147 20.6293 16.318 19.9265 16.318H17.6634V20.6777H19.9265C20.6293 20.6777 21.182 20.4724 21.5834 20.062Z"
                                    fill="#1B0B3B"></path>
                                </svg>