<?xml version="1.0" encoding="UTF-8"?>
<svg width="100%" height="100%" viewBox="0 0 304 59" fill="none" xmlns="http://www.w3.org/2000/svg">
    <path
        d="M294.979 26.3923V22.7288H290.619V17.4204H286.935V22.7288H283.402V26.3923H286.86V37.009C286.86 40.0744 289.416 42.6164 292.498 42.6164H294.979V38.9529H292.498C291.446 38.9529 290.544 38.1305 290.544 37.009V26.3923H294.979Z"
        fill="currentColor"></path>
    <path
        d="M273.405 22.355C277.389 22.355 280.546 25.5699 280.546 29.5325V35.5137C280.546 39.4016 277.314 42.6912 273.405 42.6912H271.976C268.067 42.6912 264.835 39.4763 264.835 35.5137V29.5325C264.835 25.5699 268.067 22.355 271.976 22.355H273.405ZM268.594 29.5325V35.5137C268.594 37.4576 270.172 38.953 272.052 38.953H273.48C275.434 38.953 276.938 37.3829 276.938 35.5137V29.5325C276.938 27.5886 275.434 26.0933 273.48 26.0933H272.052C270.172 26.0185 268.594 27.5886 268.594 29.5325Z"
        fill="currentColor"></path>
    <path
        d="M260.776 29.5325V35.5137C260.776 39.4763 257.543 42.6912 253.634 42.6912H253.183C251.529 42.6912 249.951 42.0931 248.748 41.1212V49.0463H245.064V22.7288H248.748V23.9251C249.951 22.9531 251.454 22.355 253.183 22.355H253.634C257.543 22.355 260.776 25.5699 260.776 29.5325ZM257.092 29.5325C257.092 27.6633 255.589 26.0933 253.634 26.0933H252.206C250.327 26.0933 248.748 27.6633 248.748 29.5325V35.5137C248.748 37.4576 250.327 38.953 252.206 38.953H253.634C255.589 38.953 257.092 37.3829 257.092 35.5137V29.5325Z"
        fill="currentColor"></path>
    <path
        d="M227.774 36.1865C228.15 37.7566 229.503 38.9529 231.232 38.9529H233.788C235.668 38.9529 237.246 37.3828 237.246 35.5136C237.246 33.3454 235.893 32.0744 233.939 31.3268L230.556 30.0557C227.398 28.8595 224.767 26.7661 224.767 22.8035C224.767 18.8409 228 15.626 231.909 15.626H233.713C237.021 15.626 239.877 17.8689 240.629 21.0091L237.021 22.0558C236.72 20.4857 235.292 19.3643 233.638 19.3643H231.834C229.879 19.3643 228.376 20.9343 228.376 22.8035C228.376 24.2988 228.902 25.4203 231.909 26.6165L235.292 27.9623C238.75 29.3829 240.93 31.9249 240.93 35.5136C240.93 39.4762 237.697 42.6164 233.788 42.6164H231.232C227.85 42.6164 225.068 40.2986 224.241 37.2333L227.774 36.1865Z"
        fill="currentColor"></path>
    <path
        d="M220.708 26.3923V22.7288H216.348V17.4204H212.665V22.7288H209.207V26.3923H212.665V37.009C212.665 40.0744 215.22 42.6164 218.302 42.6164H220.783V38.9529H218.302C217.25 38.9529 216.348 38.1305 216.348 37.009V26.3923H220.708Z"
        fill="currentColor"></path>
    <path
        d="M205.899 29.5325V42.3174H202.216V29.5325C202.216 27.5886 200.712 26.0932 198.758 26.0932H197.329C195.45 26.0932 193.871 27.6633 193.871 29.5325V42.3174H190.188V15.9999H193.871V23.925C195.074 22.9531 196.578 22.355 198.307 22.355H198.758C202.742 22.355 205.899 25.5699 205.899 29.5325Z"
        fill="currentColor"></path>
    <path
        d="M185.377 22.7288V42.1679C185.377 46.1305 182.219 49.2706 178.235 49.2706H176.732C173.349 49.2706 170.568 46.9529 169.816 43.8875L173.349 42.8408C173.725 44.3361 175.078 45.5323 176.732 45.5323H178.235C180.115 45.5323 181.693 43.9622 181.693 42.0931V39.7754C180.49 40.7473 178.987 41.3454 177.258 41.3454H176.807C172.898 41.3454 169.666 38.1305 169.666 34.1679V29.3829C169.666 25.4204 172.898 22.2054 176.807 22.2054H177.258C178.912 22.2054 180.49 22.8036 181.693 23.7755V22.5793L185.377 22.7288ZM181.693 34.3175V29.5325C181.693 27.5886 180.19 26.0933 178.235 26.0933H176.807C174.928 26.0933 173.349 27.6633 173.349 29.5325V34.3175C173.349 36.1866 174.928 37.7567 176.807 37.7567H178.235C180.115 37.7567 181.693 36.1866 181.693 34.3175Z"
        fill="currentColor"></path>
    <path
        d="M153.428 22.7288V35.5137C153.428 37.4576 154.932 38.9529 156.886 38.9529H158.314C160.269 38.9529 161.772 37.3828 161.772 35.5137V22.7288H165.456V35.5137C165.456 39.4763 162.223 42.6164 158.314 42.6164H156.886C152.902 42.6164 149.745 39.4015 149.745 35.4389V22.7288H153.428Z"
        fill="currentColor"></path>
    <path
        d="M138.244 22.355C142.228 22.355 145.385 25.5699 145.385 29.5325V35.5137C145.385 39.4016 142.153 42.6912 138.244 42.6912H136.815C132.906 42.6912 129.674 39.4763 129.674 35.5137V29.5325C129.674 25.5699 132.906 22.355 136.815 22.355H138.244ZM133.357 29.5325V35.5137C133.357 37.4576 134.936 38.953 136.815 38.953H138.244C140.198 38.953 141.702 37.3829 141.702 35.5137V29.5325C141.702 27.5886 140.198 26.0933 138.244 26.0933H136.815C134.936 26.0185 133.357 27.5886 133.357 29.5325Z"
        fill="currentColor"></path>
    <path
        d="M125.389 29.5325V42.3174H121.705V29.5325C121.705 27.5886 120.202 26.0932 118.247 26.0932H116.819C114.94 26.0932 113.361 27.6633 113.361 29.5325V42.3174H109.678V15.9999H113.361V23.925C114.564 22.9531 116.067 22.355 117.796 22.355H118.247C122.156 22.355 125.389 25.5699 125.389 29.5325Z"
        fill="currentColor"></path>
    <path
        d="M105.693 15.9999V19.6634H98.2511V42.2426H94.5676V19.7382H87.1255V16.0746L105.693 15.9999Z"
        fill="currentColor"></path>
    <path
        d="M51.7942 58.7658C55.8629 58.7658 59.1612 55.4853 59.1612 51.4387C59.1612 47.3921 55.8629 44.1117 51.7942 44.1117C47.7255 44.1117 44.4272 47.3921 44.4272 51.4387C44.4272 55.4853 47.7255 58.7658 51.7942 58.7658Z"
        fill="currentColor"></path>
    <path
        d="M58.635 14.5793H0V18.2429H20.1464V58.3173H23.8299V18.2429H27.5133V58.3173H31.1217V18.2429H34.8051V58.3173H38.4886V18.2429H58.635V14.5793Z"
        fill="currentColor"></path>
    <path d="M58.635 7.32703H0V10.9905H58.635V7.32703Z" fill="currentColor"></path>
    <path d="M58.635 0H0V3.66352H58.635V0Z" fill="currentColor"></path>
    <path
        d="M300.993 42.6912C302.647 42.6912 304 41.3454 304 39.7006C304 38.0557 302.647 36.71 300.993 36.71C299.264 36.71 297.986 38.0557 297.986 39.7006C297.986 41.3454 299.264 42.6912 300.993 42.6912ZM300.993 42.1679C299.64 42.1679 298.588 41.0464 298.588 39.7006C298.588 38.3548 299.64 37.2333 300.993 37.2333C302.346 37.2333 303.399 38.3548 303.399 39.7006C303.399 41.0464 302.346 42.1679 300.993 42.1679ZM300.467 41.4202V40.0744H300.843L301.67 41.4202H302.346L301.519 39.9997C301.971 39.8501 302.346 39.5511 302.346 39.0277C302.346 38.7286 302.196 38.4296 301.971 38.2053C301.745 38.0557 301.444 37.981 301.068 37.981H299.866V41.3454H300.467V41.4202ZM300.993 39.5511H300.467V38.5043H300.993C301.444 38.5043 301.745 38.6539 301.745 39.0277C301.745 39.4015 301.444 39.5511 300.993 39.5511Z"
        fill="currentColor"></path>
</svg>