<?xml version="1.0" encoding="UTF-8"?>
<svg width="100%" height="100%" viewBox="0 0 311 44" fill="none"
    xmlns="http://www.w3.org/2000/svg">
    <path
        d="M194.468 38.0282C200.241 38.0282 202.026 34.1247 203.234 29.4226H200.526C196.777 29.4226 190.551 30.0488 190.551 34.9693C190.551 37.0084 192.507 38.0282 194.468 38.0282ZM202.026 38.4237H201.909C199.258 41.7065 196.605 43.575 192.335 43.575C186.975 43.575 183.169 40.6306 183.169 35.2571C183.169 25.635 194.125 24.8976 201.39 24.8976H204.099C204.333 24.1031 204.333 23.2545 204.333 22.4093C204.333 19.465 201.103 18.6165 198.39 18.6165C194.99 18.6165 191.702 19.465 188.647 20.8799L189.744 14.8236C193.028 13.693 196.374 13.0697 199.835 13.0697C205.771 13.0697 211.367 15.222 211.367 22.0674C211.367 25.974 208.426 37.4045 207.732 42.897H201.219L202.026 38.4237Z"
        fill="currentColor"></path>
    <path
        d="M1.71101 13.7204H7.3039L8.62968 7.7235L16.9348 5.06115L15.0316 13.7204H21.9498L20.7397 19.2671H13.82L10.9941 32.0022C10.8216 32.682 10.6493 33.6988 10.6493 34.8294C10.6493 36.5832 11.8602 37.6596 13.588 37.6596C14.9749 37.6596 16.3574 37.3776 17.3369 36.9817L16.0125 42.8678C14.6858 43.1491 13.1881 43.5481 11.8602 43.5481C6.61318 43.5481 2.92102 41.5085 2.92102 35.9027C2.92102 33.6413 3.38265 31.4349 3.90045 29.1168L6.09289 19.2671H0.5L1.71101 13.7204Z"
        fill="currentColor"></path>
    <path
        d="M27.9496 1.15638H35.6773L34.0627 8.40376H26.3346L27.9496 1.15638ZM25.1236 13.7228H32.8518L26.5075 42.8701H18.7783L25.1236 13.7228Z"
        fill="currentColor"></path>
    <path
        d="M56.185 20.4003C54.6868 19.438 52.6687 18.9303 50.5335 18.9303C44.3647 18.9303 40.9051 24.5887 40.9051 30.0794C40.9051 33.8688 42.1717 37.6618 47.4783 37.6618C49.3826 37.6618 51.7475 37.1526 53.764 36.1893L52.8979 42.192C50.5335 43.3226 47.9961 43.5503 45.4588 43.5503C37.7902 43.5503 32.8325 38.5128 32.8325 30.9845C32.8325 20.7987 39.6935 13.0452 50.36 13.0452C53.2457 13.0452 56.0125 13.5549 58.0882 14.1751L56.185 20.4003Z"
        fill="currentColor"></path>
    <path
        d="M64.6598 0.424686H72.3874L67.2533 24.3068H67.3725L78.1554 13.7225H88.1877L73.9469 27.0228L82.8816 42.8699H74.1749L66.5034 27.4192H66.3906L63.0453 42.8699H55.4915L64.6598 0.424686Z"
        fill="currentColor"></path>
    <path
        d="M116.042 13.7226H121.635L122.96 7.7257L131.265 5.06335L129.363 13.7226H136.283L135.07 19.2693H128.151L125.325 32.0044C125.152 32.6842 124.981 33.701 124.981 34.8316C124.981 36.5854 126.19 37.6618 127.922 37.6618C129.305 37.6618 130.688 37.3798 131.667 36.9839L130.344 42.87C129.016 43.1513 127.517 43.5503 126.19 43.5503C120.944 43.5503 117.252 41.5107 117.252 35.9049C117.252 33.6435 117.713 31.4371 118.234 29.119L120.423 19.2693H114.831L116.042 13.7226Z"
        fill="currentColor"></path>
    <path
        d="M113.457 24.1361C113.457 16.7245 108.614 13.0452 101.291 13.0452C91.5458 13.0452 84.3931 21.761 84.3931 30.8139C84.3931 39.473 90.1604 43.5503 98.6972 43.5503C101.867 43.5503 105.155 42.8134 108.153 41.9072L109.133 35.9049C106.25 37.2116 103.192 38.0036 100.02 38.0036C95.0791 38.0036 92.1909 36.2789 91.8211 31.6978H91.815C91.8014 31.4322 91.7749 31.1714 91.7749 30.8926C91.7749 30.8384 91.7774 30.7838 91.7774 30.7301C91.7774 30.6991 91.7749 30.6761 91.7749 30.6451H91.7804C91.815 28.6503 92.2611 26.682 93.0375 24.8628C94.5227 21.1544 96.6199 18.5919 101.175 18.5919C104.402 18.5919 106.077 20.3432 106.077 23.4582C106.077 24.1361 106.018 24.7594 105.905 25.4373H95.3302C94.6441 27.7284 94.5252 29.2627 94.5113 30.6451H112.706C113.168 28.4928 113.457 26.3431 113.457 24.1361Z"
        fill="currentColor"></path>
    <path
        d="M139.617 16.9492C139.845 15.8182 140.077 14.6311 140.249 13.7225H147.46L146.767 17.627H146.882C148.958 14.6311 152.359 13.0451 155.991 13.0451C159.51 13.0451 163.143 15.0813 163.547 18.5918H163.662C165.624 14.7988 169.95 13.0451 174.099 13.0451C178.537 13.0451 182.347 16.6097 182.347 21.0234C182.347 23.6258 181.65 26.5702 181.019 28.9454L177.904 42.8699H170.176L173.291 28.6634C173.696 26.9092 174.272 24.1902 174.272 22.4389C174.272 20.2866 172.601 18.9302 170.64 18.9302C165.275 18.9302 163.95 25.0442 162.968 29.0048L159.914 42.8699H152.187L155.301 28.6634C155.707 26.9092 156.281 24.1902 156.281 22.4389C156.281 20.2866 154.607 18.9302 152.646 18.9302C147.401 18.9302 145.958 25.0983 144.979 29.0048L141.921 42.8699H134.197L139.617 16.9492Z"
        fill="currentColor"></path>
    <path
        d="M234.317 19.6575C233.488 19.2127 231.356 18.5919 229.165 18.5919C226.857 18.5919 223.975 19.2127 223.975 21.5308C223.975 25.212 234.008 26.5703 234.008 33.701C234.008 41.2874 227.262 43.5503 220.633 43.5503C217.516 43.5503 214.401 43.0978 211.578 41.7936L213.252 35.7392C215.439 36.9248 217.633 38.0036 220.633 38.0036C223.223 38.0036 225.937 37.1526 225.937 34.7774C225.937 30.0794 215.902 29.6233 215.902 22.3247C215.902 15.4799 222.649 13.0452 228.76 13.0452C231.588 13.0452 234.473 13.5549 235.992 13.9425L234.317 19.6575Z"
        fill="currentColor"></path>
    <path
        d="M239.257 13.7226H244.851L246.176 7.7257L254.477 5.06335L252.576 13.7226H259.496L258.287 19.2693H251.363L248.537 32.0044C248.367 32.6842 248.192 33.701 248.192 34.8316C248.192 36.5854 249.406 37.6618 251.135 37.6618C252.518 37.6618 253.902 37.3798 254.883 36.9839L253.555 42.87C252.228 43.1513 250.732 43.5503 249.406 43.5503C244.157 43.5503 240.466 41.5107 240.466 35.9049C240.466 33.6435 240.931 31.4371 241.448 29.119L243.638 19.2693H238.043L239.257 13.7226Z"
        fill="currentColor"></path>
    <path
        d="M291.645 17.627C291.873 16.3844 292.105 15.0813 292.338 13.7225H299.719L298.679 19.2126H298.796C300.183 16.0435 303.984 13.0451 307.56 13.0451C308.542 13.0451 309.577 13.0991 310.5 13.3265L308.887 20.7391C308.023 20.4567 306.922 20.2866 305.945 20.2866C300.464 20.2866 297.813 25.0983 296.835 29.7963L294.066 42.8699H286.34L291.645 17.627Z"
        fill="currentColor"></path>
    <path
        d="M286.282 24.1361C286.282 16.7245 281.438 13.0452 274.115 13.0452C264.372 13.0452 257.218 21.761 257.218 30.8139C257.218 39.473 262.985 43.5503 271.521 43.5503C274.689 43.5503 277.979 42.8134 280.979 41.9072L281.957 35.9049C279.073 37.2116 276.018 38.0036 272.846 38.0036C267.902 38.0036 265.016 36.2789 264.643 31.6978H264.638C264.626 31.4322 264.599 31.1714 264.599 30.8926C264.599 30.8384 264.603 30.7838 264.603 30.7301C264.603 30.6991 264.599 30.6761 264.599 30.6451H264.603C264.638 28.6503 265.084 26.682 265.861 24.8628C267.344 21.1544 269.443 18.5919 273.998 18.5919C277.227 18.5919 278.902 20.3432 278.902 23.4582C278.902 24.1361 278.841 24.7594 278.73 25.4373H268.156C267.466 27.7284 267.349 29.2627 267.332 30.6451H285.532C285.994 28.4928 286.282 26.3431 286.282 24.1361Z"
        fill="currentColor"></path>
</svg>