<?xml version="1.0" encoding="UTF-8"?> <svg xmlns="http://www.w3.org/2000/svg" width="200" height="29" viewBox="0 0 200 29" fill="none"><g clip-path="url(#clip0_3466_17487)"><path d="M2.27567 8.91854H5.83143L6.66111 5.00719L11.9355 3.28857L10.7502 8.91854H15.1357L14.3653 12.5336H9.97983L8.20194 20.7711C8.08342 21.1859 7.96489 21.8971 7.96489 22.6082C7.96489 23.7342 8.73531 24.4454 9.8613 24.4454C10.7502 24.4454 11.6392 24.2676 12.2318 24.0305L11.4021 27.8234C10.5725 28.0012 9.62425 28.2382 8.73531 28.2382C5.41659 28.2382 3.04608 26.9344 3.04608 23.3194C3.04608 21.8378 3.34239 20.4155 3.69797 18.9339L5.06102 12.5336H1.50525L2.27567 8.91854Z" fill="#1B0B3B"></path><path d="M129.572 24.919H129.513C127.853 27.0525 126.135 28.2377 123.409 28.2377C120.031 28.2377 117.601 26.3413 117.601 22.8448C117.601 16.6222 124.535 16.1481 129.157 16.1481H130.876C130.994 15.6148 130.994 15.0814 130.994 14.548C130.994 12.6516 128.92 12.1183 127.202 12.1183C125.068 12.1183 122.935 12.6516 120.979 13.5998L121.69 9.68849C123.764 8.97734 125.898 8.5625 128.091 8.5625C131.883 8.5625 135.439 9.92554 135.439 14.3703C135.439 16.9186 133.543 24.3264 133.128 27.8822H128.979L129.572 24.919ZM124.772 24.682C128.446 24.682 129.572 22.1337 130.343 19.1113H128.624C126.253 19.1113 122.283 19.5261 122.283 22.7263C122.283 23.9708 123.527 24.682 124.772 24.682Z" fill="#1B0B3B"></path><path d="M17.1506 8.91832H22.0694L18.0395 27.7639H13.1207L17.1506 8.91832ZM18.9285 0.799316H23.8473L22.8398 5.48108H17.921L18.9285 0.799316Z" fill="#1B0B3B"></path><path d="M36.8851 13.2443C35.9369 12.5924 34.6331 12.2961 33.2701 12.2961C29.3587 12.2961 27.166 15.9703 27.166 19.5261C27.166 21.9559 27.9957 24.4449 31.3144 24.4449C32.4996 24.4449 34.0405 24.0893 35.285 23.4967L34.7516 27.4081C33.2701 28.1192 31.6107 28.297 30.0106 28.297C25.1511 28.297 22.0101 25.0376 22.0101 20.178C22.0101 13.5998 26.3956 8.5625 33.1515 8.5625C34.9887 8.5625 36.7666 8.91808 38.0703 9.27365L36.8851 13.2443Z" fill="#1B0B3B"></path><path d="M42.278 0.325195H47.1968L43.9374 15.7928H43.9966L50.8711 8.9183H57.2122L48.2043 17.5114L53.8343 27.8231H48.3228L43.4633 17.8077H43.404L41.2706 27.8231H36.4703L42.278 0.325195Z" fill="#1B0B3B"></path><path d="M74.9318 8.91854H78.4876L79.3172 5.00719L84.5916 3.28857L83.4064 8.91854H87.7918L87.0214 12.5336H82.6359L80.8581 20.7711C80.7395 21.1859 80.621 21.8971 80.621 22.6082C80.621 23.7342 81.3914 24.4454 82.5174 24.4454C83.4064 24.4454 84.2953 24.2676 84.8879 24.0305L84.0583 27.8234C83.2286 28.0012 82.2804 28.2382 81.3914 28.2382C78.0727 28.2382 75.7022 26.9344 75.7022 23.3194C75.7022 21.8378 75.9985 20.4155 76.3541 18.9339L77.7171 12.5336H74.1614L74.9318 8.91854Z" fill="#1B0B3B"></path><path d="M73.2725 15.6742C73.2725 10.8739 70.1908 8.50342 65.5683 8.50342C59.3457 8.50342 54.8417 14.1334 54.8417 20.0004C54.8417 25.6304 58.516 28.2379 63.9089 28.2379C65.9239 28.2379 67.9981 27.7638 69.8945 27.1712L70.5464 23.2599C68.7092 24.0895 66.7536 24.6229 64.7386 24.6229C61.5977 24.6229 59.7605 23.4969 59.5235 20.5338C59.5235 20.356 59.5235 20.1782 59.5235 20.0004C59.5235 19.9411 59.5235 19.9411 59.5235 19.8819V19.8226C59.5235 18.5188 59.8198 17.2743 60.2939 16.0891C61.2421 13.6593 62.5459 11.9999 65.4498 11.9999C67.524 11.9999 68.5907 13.1259 68.5907 15.1408C68.5907 15.5557 68.5314 15.9705 68.4722 16.4446H61.7755C61.3606 17.9262 61.2421 18.9337 61.2421 19.8226H72.7984C73.0947 18.4596 73.2725 17.0965 73.2725 15.6742Z" fill="#1B0B3B"></path><path d="M89.9253 10.9925C90.0438 10.2813 90.2216 9.51089 90.3401 8.91826H94.9034L94.4885 11.4666H94.5478C95.8516 9.51088 98.0443 8.50342 100.356 8.50342C102.608 8.50342 104.919 9.8072 105.156 12.1184H105.215C106.46 9.68867 109.186 8.50342 111.853 8.50342C114.697 8.50342 117.068 10.8147 117.068 13.6593C117.068 15.3186 116.653 17.2743 116.238 18.8151L114.282 27.8231H109.363L111.319 18.6374C111.556 17.5114 111.971 15.7335 111.971 14.6075C111.971 13.2444 110.904 12.3555 109.66 12.3555C106.223 12.3555 105.393 16.3261 104.8 18.8744L102.845 27.8231H97.9258L99.8814 18.6374C100.118 17.5114 100.533 15.7335 100.533 14.6075C100.533 13.2444 99.4666 12.3555 98.2221 12.3555C94.9034 12.3555 93.9552 16.3261 93.3625 18.8744L91.4068 27.8231H86.488L89.9253 10.9925Z" fill="#1B0B3B"></path><path d="M150.077 12.7702C149.544 12.4738 148.181 12.059 146.818 12.059C145.336 12.059 143.499 12.4738 143.499 13.9554C143.499 16.3259 149.899 17.2149 149.899 21.8374C149.899 26.7562 145.632 28.2377 141.425 28.2377C139.469 28.2377 137.454 27.9414 135.676 27.1118L136.743 23.2004C138.106 23.9708 139.528 24.682 141.425 24.682C143.084 24.682 144.803 24.1486 144.803 22.6078C144.803 19.5854 138.402 19.2891 138.402 14.548C138.402 10.1033 142.669 8.5625 146.581 8.5625C148.358 8.5625 150.196 8.91808 151.203 9.15513L150.077 12.7702Z" fill="#1B0B3B"></path><path d="M153.218 8.91854H156.774L157.603 5.00719L162.878 3.28857L161.692 8.91854H166.078L165.308 12.5336H160.922L159.144 20.7711C159.026 21.1859 158.907 21.8971 158.907 22.6082C158.907 23.7342 159.678 24.4454 160.804 24.4454C161.692 24.4454 162.581 24.2676 163.174 24.0305L162.344 27.8234C161.515 28.0012 160.567 28.2382 159.678 28.2382C156.359 28.2382 153.988 26.9344 153.988 23.3194C153.988 21.8378 154.285 20.4155 154.581 18.9339L156.003 12.5336H152.448L153.218 8.91854Z" fill="#1B0B3B"></path><path d="M186.524 11.4666C186.642 10.6369 186.82 9.8072 186.938 8.91826H191.62L190.968 12.474H191.028C191.916 10.3998 194.346 8.50342 196.598 8.50342C197.25 8.50342 197.902 8.56268 198.495 8.68121L197.487 13.4815C196.954 13.3037 196.243 13.1852 195.591 13.1852C192.094 13.1852 190.435 16.3261 189.783 19.3485L188.005 27.8231H183.086L186.524 11.4666Z" fill="#1B0B3B"></path><path d="M183.146 15.6742C183.146 10.8739 180.064 8.50342 175.441 8.50342C169.278 8.50342 164.715 14.1334 164.715 20.0004C164.715 25.6304 168.389 28.2379 173.782 28.2379C175.797 28.2379 177.871 27.7638 179.768 27.1712L180.42 23.2599C178.582 24.0895 176.627 24.6229 174.612 24.6229C171.471 24.6229 169.634 23.4969 169.397 20.5338C169.397 20.356 169.397 20.1782 169.397 20.0004C169.397 19.9411 169.397 19.9411 169.397 19.8819V19.8226C169.397 18.5188 169.693 17.2743 170.167 16.0891C171.115 13.6593 172.419 11.9999 175.323 11.9999C177.397 11.9999 178.464 13.1259 178.464 15.1408C178.464 15.5557 178.405 15.9705 178.345 16.4446H171.649C171.234 17.9262 171.115 18.9337 171.115 19.8226H182.672C182.968 18.4596 183.146 17.0965 183.146 15.6742Z" fill="#1B0B3B"></path></g><defs><clipPath id="clip0_3466_17487"><rect width="200" height="27.972" fill="white" transform="translate(0 0.325195)"></rect></clipPath></defs></svg> 