<?xml version="1.0" encoding="UTF-8"?>
<svg width="84" height="30"
    viewBox="0 0 84 30" fill="none" xmlns="http://www.w3.org/2000/svg">
    <path
        d="M5.58389 21.4256C5.93169 22.3948 6.41322 23.2234 7.02855 23.9116C7.64388 24.5998 8.37287 25.1265 9.21551 25.4917C10.0582 25.8568 10.9745 26.0394 11.9643 26.0394C12.9275 26.0394 13.8303 25.8498 14.673 25.4705C15.5158 25.0912 16.2514 24.5576 16.8801 23.8694C17.5087 23.1812 17.997 22.3596 18.3448 21.4045C18.6926 20.4495 18.8664 19.3821 18.8664 18.2023V0H23.0799V29.4944H18.9066V26.7556C17.9703 27.7949 16.8667 28.5955 15.596 29.1574C14.3252 29.7191 12.9542 30 11.4828 30C9.98463 30 8.58686 29.7261 7.28933 29.1783C5.9919 28.6306 4.86823 27.8512 3.91859 26.8399C2.96896 25.8286 2.21981 24.6139 1.67143 23.1953C1.12296 21.7767 0.84877 20.1967 0.84877 18.455V0H5.06224V18.2023C5.06224 19.3821 5.23609 20.4565 5.58389 21.4256Z"
        fill="currentColor"></path>
    <path
        d="M30.3435 0V10.7443C31.2798 9.76118 32.3634 8.98176 33.5939 8.40587C34.8245 7.82998 36.1622 7.54208 37.6067 7.54208C39.1049 7.54208 40.5093 7.83697 41.8202 8.42685C43.1311 9.01673 44.268 9.81731 45.2311 10.8286C46.1942 11.8399 46.9567 13.0336 47.5185 14.41C48.0803 15.7865 48.3611 17.2471 48.3611 18.7921C48.3611 20.3369 48.0803 21.7906 47.5185 23.1529C46.9567 24.5153 46.1942 25.7021 45.2311 26.7132C44.268 27.7245 43.1311 28.5251 41.8202 29.115C40.5093 29.7049 39.1049 29.9998 37.6067 29.9998C36.1621 29.9998 34.8179 29.7119 33.5739 29.136C32.3299 28.5602 31.2397 27.7806 30.3034 26.7975V29.4942H26.2906V0H30.3435ZM30.805 21.6993C31.1661 22.5983 31.6678 23.3848 32.3098 24.0589C32.9519 24.7331 33.7009 25.2668 34.557 25.6601C35.4131 26.0533 36.336 26.25 37.3259 26.25C38.289 26.25 39.1985 26.0533 40.0546 25.6601C40.9106 25.2668 41.6529 24.7332 42.2818 24.0589C42.9104 23.3849 43.412 22.5983 43.7865 21.6993C44.1611 20.8005 44.3483 19.8314 44.3483 18.7921C44.3483 17.7527 44.1611 16.7766 43.7865 15.8637C43.412 14.9507 42.9104 14.1572 42.2818 13.4831C41.653 12.809 40.9107 12.2823 40.0546 11.9031C39.1984 11.5239 38.2889 11.3342 37.3259 11.3342C36.3629 11.3342 35.4533 11.5238 34.5972 11.9031C33.7412 12.2824 32.9921 12.809 32.35 13.4831C31.708 14.1572 31.1997 14.9507 30.8251 15.8637C30.4506 16.7766 30.2633 17.7527 30.2633 18.7921C30.2632 19.8314 30.4439 20.8005 30.805 21.6993Z"
        fill="currentColor"></path>
    <path
        d="M50.6477 14.4538C51.1827 13.1055 51.9185 11.9187 52.8547 10.8934C53.7909 9.86817 54.9013 9.06059 56.1854 8.47071C57.4695 7.88083 58.8606 7.58594 60.3588 7.58594C61.8301 7.58594 63.1945 7.86685 64.4519 8.42857C65.7092 8.99039 66.7927 9.7699 67.7022 10.7671C68.6118 11.7642 69.3208 12.9441 69.829 14.3064C70.3373 15.6688 70.5915 17.1505 70.5915 18.7517V20.1422H53.9382C54.0721 21.013 54.3396 21.8205 54.7408 22.5648C55.1422 23.3092 55.6437 23.9553 56.2456 24.503C56.8475 25.0508 57.5297 25.4792 58.2922 25.7881C59.0547 26.0971 59.8638 26.2517 60.72 26.2517C63.1545 26.2517 65.1208 25.1982 66.6189 23.0915L69.5482 25.3667C68.5317 26.7993 67.2744 27.923 65.7762 28.7375C64.2781 29.5521 62.5927 29.9594 60.72 29.9594C59.1951 29.9594 57.7706 29.6784 56.4464 29.1167C55.1221 28.555 53.9718 27.7684 52.9954 26.7571C52.0189 25.7458 51.2498 24.559 50.688 23.1967C50.1262 21.8344 49.8453 20.3526 49.8453 18.7515C49.8451 17.2347 50.1127 15.8021 50.6477 14.4538ZM56.2857 12.7894C55.1488 13.7866 54.393 15.1139 54.0185 16.7712H66.4985C66.1507 15.1139 65.4083 13.7866 64.2713 12.7894C63.1343 11.7923 61.8034 11.2937 60.2786 11.2937C58.7536 11.2937 57.4227 11.7923 56.2857 12.7894Z"
        fill="currentColor"></path>
    <path
        d="M78.1754 13.2713C77.3193 14.2544 76.8913 15.5887 76.8913 17.2741V29.4932H72.8383V8.00459H76.8511V10.6591C77.3594 9.78829 78.0215 9.10006 78.8374 8.59447C79.6533 8.08878 80.6231 7.83594 81.7468 7.83594H83.1512V11.7966H81.4659C80.1283 11.7967 79.0314 12.2882 78.1754 13.2713Z"
        fill="currentColor"></path>
</svg>