<?xml version="1.0" encoding="UTF-8"?>
<svg width="100" class="small_svg" height="40" viewBox="0 0 211 80" fill="none"
                          xmlns="http://www.w3.org/2000/svg">
                          <path
                            d="M170.527 46.7969L173.957 46.0152C174.029 45.9989 174.15 45.9718 174.293 45.9257C175.24 45.6754 176.052 45.0727 176.557 44.2445C177.063 43.4162 177.222 42.4271 177.001 41.4856L176.987 41.4259C176.874 40.9748 176.676 40.5486 176.403 40.1693C176.019 39.6891 175.544 39.2872 175.004 38.986C174.368 38.6291 173.703 38.3259 173.015 38.0796L169.254 36.7253C167.144 35.9518 165.034 35.2001 162.901 34.4646C161.521 33.9815 160.35 33.5554 159.334 33.2433C159.14 33.1905 158.948 33.1326 158.758 33.0696C157.529 32.7005 156.664 32.5458 155.934 32.5404C155.446 32.5225 154.96 32.6095 154.51 32.7955C154.039 32.9961 153.617 33.292 153.27 33.6639C153.098 33.8564 152.936 34.0575 152.785 34.2664C152.491 34.7107 152.249 35.1859 152.063 35.6831C151.364 37.716 151.016 39.8497 151.033 41.9958C151.047 43.9336 151.099 46.4223 152.182 48.1104C152.443 48.5446 152.793 48.9192 153.209 49.2096C153.981 49.7334 154.758 49.8039 155.57 49.8609C156.782 49.9451 157.953 49.6547 159.124 49.386L170.519 46.7941L170.527 46.7969ZM208.794 28.8602C207.857 26.9242 206.598 25.1564 205.069 23.6304C204.871 23.4363 204.659 23.2567 204.435 23.093C204.228 22.94 204.013 22.7977 203.791 22.6669C203.562 22.5434 203.326 22.432 203.085 22.3331C202.61 22.1489 202.1 22.0657 201.589 22.0889C201.102 22.116 200.625 22.2517 200.193 22.477C199.54 22.7972 198.832 23.3129 197.889 24.1732C197.76 24.3007 197.597 24.4446 197.449 24.5803C196.674 25.2995 195.809 26.187 194.782 27.2183C193.192 28.8005 191.63 30.3909 190.074 31.9949L187.291 34.8391C186.783 35.3579 186.32 35.918 185.908 36.5136C185.555 37.0176 185.305 37.5845 185.172 38.1827C185.098 38.6422 185.109 39.1113 185.206 39.5668L185.219 39.6265C185.439 40.5671 186.021 41.3869 186.842 41.9133C187.663 42.4398 188.66 42.6319 189.622 42.4491C189.738 42.433 189.852 42.4113 189.966 42.3839L204.793 39.0078C205.964 38.7418 207.149 38.4975 208.199 37.895C208.904 37.4961 209.573 37.0971 210.033 36.2938C210.278 35.8513 210.427 35.3632 210.469 34.8608C210.697 32.8688 209.642 30.608 208.794 28.8602ZM182.249 35.0019C183.324 33.6721 183.324 31.6909 183.418 30.0679C183.743 24.6536 184.081 19.2392 184.354 13.8221C184.456 11.7703 184.679 9.74572 184.555 7.67767C184.453 5.9733 184.442 4.01381 183.349 2.6134C181.42 0.143684 177.304 0.347233 174.497 0.732616C173.631 0.85046 172.771 1.00987 171.921 1.21027C171.067 1.41111 170.218 1.63094 169.392 1.8942C166.698 2.76267 162.909 4.35848 162.27 7.41713C161.907 9.14593 162.766 10.9127 163.427 12.4923C164.235 14.4029 165.334 16.1263 166.337 17.9256C168.99 22.6778 171.69 27.4028 174.381 32.1306C175.188 33.5418 176.062 35.3276 177.618 36.0604C177.723 36.1038 177.828 36.1418 177.935 36.1771C178.632 36.4376 179.395 36.4865 180.12 36.3209L180.249 36.2938C180.922 36.1119 181.528 35.751 182.004 35.2543C182.092 35.1729 182.172 35.0915 182.252 35.0019H182.249ZM180.963 49.4972C180.544 48.9162 179.948 48.4806 179.262 48.253C178.577 48.0253 177.835 48.0172 177.144 48.2298C176.982 48.2826 176.824 48.347 176.671 48.4225C176.434 48.5415 176.208 48.6804 175.996 48.8378C175.389 49.3085 174.847 49.855 174.384 50.4634C174.265 50.6127 174.155 50.8108 174.012 50.9411L171.626 54.1707C170.276 55.9836 168.94 57.7993 167.62 59.6421C166.755 60.8335 166.012 61.8404 165.419 62.7279C165.309 62.8961 165.193 63.0807 165.089 63.2327C164.381 64.3074 163.981 65.0944 163.775 65.7946C163.62 66.2598 163.571 66.7527 163.631 67.2385C163.697 67.7433 163.871 68.2291 164.138 68.666C164.281 68.8831 164.436 69.0948 164.601 69.2984C164.958 69.7032 165.36 70.0674 165.799 70.384C167.447 71.513 169.249 72.3245 171.144 72.9514C172.723 73.467 174.362 73.7764 176.02 73.8687C176.304 73.8823 176.588 73.8769 176.869 73.8524C177.13 73.8284 177.389 73.7922 177.646 73.7439C177.903 73.6849 178.157 73.6124 178.406 73.5267C178.891 73.3478 179.332 73.0704 179.701 72.7126C180.051 72.3679 180.321 71.9527 180.489 71.494C180.764 70.8155 180.946 69.9579 181.068 68.6823C181.076 68.5005 181.103 68.2834 181.123 68.0852C181.216 67.0268 181.26 65.7784 181.327 64.3182C181.445 62.0684 181.536 59.8293 181.608 57.5849L181.762 53.5899C181.798 52.6726 181.767 51.6521 181.508 50.7375C181.394 50.2982 181.21 49.8795 180.963 49.4972ZM207.887 55.7475C207.391 55.2075 206.686 54.6728 205.573 54.0106C205.413 53.921 205.223 53.8043 205.05 53.7012C204.124 53.1503 203.008 52.5749 201.705 51.8774C199.702 50.7918 197.699 49.7388 195.674 48.6912L192.101 46.824C191.917 46.7697 191.729 46.6394 191.553 46.5553C190.866 46.2096 190.136 45.9532 189.382 45.7927C189.122 45.7433 188.859 45.716 188.594 45.7113C188.423 45.7104 188.252 45.7204 188.082 45.7411C187.366 45.8499 186.704 46.1785 186.19 46.68C185.675 47.1815 185.335 47.8303 185.217 48.5338C185.164 48.9816 185.181 49.4348 185.269 49.8745C185.442 50.8135 185.867 51.739 186.307 52.5505L188.214 56.0759C189.277 58.0625 190.352 60.0383 191.454 62.0087C192.165 63.2924 192.757 64.3915 193.311 65.3034C193.415 65.4744 193.534 65.659 193.625 65.8191C194.3 66.9128 194.84 67.6021 195.388 68.0988C195.753 68.4448 196.191 68.707 196.672 68.8665C197.152 69.0261 197.662 69.079 198.165 69.0216C198.427 68.9901 198.687 68.9448 198.945 68.8859C199.472 68.7469 199.981 68.5493 200.463 68.2969C201.913 67.4962 203.249 66.5107 204.438 65.3658C205.865 63.9817 207.127 62.4727 208.108 60.7467C208.245 60.5024 208.361 60.25 208.46 59.9868C208.553 59.7457 208.633 59.5002 208.7 59.2513C208.758 58.9962 208.802 58.741 208.832 58.4832C208.882 57.9765 208.822 57.4652 208.659 56.9824C208.497 56.5191 208.233 56.0965 207.887 55.7448V55.7475Z"
                            fill="currentColor"></path>
                          <path fill-rule="evenodd" clip-rule="evenodd"
                            d="M84.8361 21.4674C84.8361 18.5634 87.2357 16.1914 90.1339 16.1914C92.9908 16.1914 95.3105 18.5634 95.4345 21.5108V62.6926C95.4345 65.5966 93.0321 67.9686 90.1339 67.9686C89.4334 67.9682 88.7399 67.8311 88.0935 67.5652C87.4471 67.2992 86.8606 66.9097 86.368 66.4191C85.8754 65.9285 85.4863 65.3465 85.2234 64.7069C84.9604 64.0673 84.8288 63.3826 84.8361 62.6926V21.4674ZM79.9074 46.9054C79.8661 47.7223 79.6595 49.2367 78.5851 50.3413C77.4252 51.5273 75.8521 51.8123 74.9402 51.8123C71.1521 51.834 67.364 51.8449 63.576 51.853C59.7879 51.8638 55.9998 51.8747 52.2117 51.8937C52.5423 52.9169 53.2035 54.472 54.6939 55.9022C55.6031 56.7626 56.4736 57.2511 56.8483 57.4573C57.3029 57.7423 58.876 58.5619 60.821 58.5619C62.8927 58.5619 64.7138 57.9052 66.4962 57.0068L66.6422 56.9308C67.882 56.2985 69.1575 55.6471 70.5102 55.411C71.8326 55.2075 73.2432 55.4517 74.2763 56.3528C75.5188 57.4166 76.0174 58.969 75.5601 60.5648C75.0229 62.3642 73.4911 63.9193 71.8767 64.8584C70.9527 65.391 69.9829 65.8424 68.9785 66.2072C66.4161 67.1029 63.7066 67.5198 60.989 67.4366C60.3278 67.4366 59.6226 67.4366 58.9173 67.3552C58.1734 67.2738 57.4296 67.1082 56.7243 66.9454C55.5809 66.7011 54.4692 66.3306 53.4101 65.8408C52.3506 65.3781 51.3386 64.8165 50.3879 64.1636C49.4396 63.4921 48.5536 62.7392 47.7404 61.9137C46.9316 61.0779 46.197 60.1754 45.5446 59.216C43.3104 55.8615 42.2745 51.7309 42.4811 47.7223C42.6464 43.7979 43.9715 39.8708 46.3739 36.6819C46.6329 36.2802 46.9331 35.941 47.2169 35.6207C47.3409 35.4796 47.4621 35.3439 47.5751 35.2082C50.5394 31.6366 54.5011 30.5076 56.1348 30.0408L56.2257 30.0137C59.5414 29.0862 63.0538 29.0862 66.3695 30.0137C67.1574 30.2199 71.5874 31.5688 75.0229 35.2082C75.1882 35.371 75.6455 35.903 76.224 36.6819C77.6935 38.6532 78.773 40.8794 79.406 43.2443L79.4116 43.266C79.6595 44.1643 79.9074 45.391 79.9074 46.9027V46.9054ZM55.6058 40.1585C53.9711 41.4681 52.8334 43.2832 52.377 45.3096H70.4276C69.9405 43.285 68.7915 41.4741 67.1574 40.1558C65.5114 38.8555 63.4707 38.136 61.361 38.1122C59.2623 38.1327 57.2327 38.8531 55.6031 40.1558L55.6058 40.1585ZM124.249 29.3189C119.529 29.3189 115.223 31.4059 112.16 34.8011V34.6763C112.099 33.3128 111.496 32.0277 110.481 31.098C109.467 30.1683 108.123 29.6685 106.738 29.7062C105.353 29.744 104.039 30.3163 103.078 31.2998C102.117 32.2833 101.588 33.5992 101.603 34.9639V74.265C101.6 74.9522 101.734 75.6333 101.999 76.2691C102.264 76.9048 102.655 77.4826 103.147 77.9692C103.64 78.4558 104.225 78.8416 104.87 79.1044C105.515 79.3671 106.206 79.5017 106.903 79.5002C107.601 79.5013 108.292 79.3665 108.936 79.1036C109.58 78.8407 110.165 78.4548 110.658 77.9683C111.15 77.4817 111.54 76.904 111.805 76.2685C112.07 75.6329 112.205 74.952 112.201 74.265V61.9951C115.265 65.3496 119.529 67.4773 124.29 67.4773C133.773 67.4773 141.473 59.0097 141.473 48.4578C141.432 37.9086 133.731 29.3189 124.249 29.3189ZM121.932 58.9283C116.549 58.9283 112.16 54.3064 112.16 48.542C112.16 42.7341 116.507 38.1122 121.932 38.1122C127.312 38.1122 131.701 42.7341 131.701 48.542C131.66 54.3064 127.312 58.9283 121.932 58.9283ZM34.533 51.1989L32.7946 54.9632C32.0067 56.597 31.2188 58.2743 30.4749 59.9515L29.7559 61.5256C26.4444 68.7773 22.5186 77.386 13.9561 79.2125C9.81536 80.1136 3.56432 78.8869 1.24463 75.0412C-1.0723 71.1575 2.36315 66.6984 6.79315 67.7216C7.49292 67.8736 8.17891 68.2101 8.87316 68.5521C10.0275 69.122 11.1984 69.6946 12.4656 69.4395C13.6668 69.236 14.4107 68.3757 15.3639 67.2711C16.6863 65.7594 17.2676 64.1636 17.5155 63.2218L17.4549 63.0807C17.4357 63.032 17.4146 62.984 17.3915 62.9369C16.3143 60.9557 15.3721 59.1861 14.587 57.707C14.1456 56.8718 13.7002 56.0386 13.2508 55.2075L11.4463 51.8313C10.1239 49.3616 9.90352 48.9545 9.31946 47.8879C8.03188 45.4938 6.67869 43.1345 5.26139 40.8126C3.72962 38.275 2.15653 35.4552 3.44035 32.4671C3.92289 31.3102 4.829 30.3741 5.97913 29.8443C7.12925 29.3145 8.43944 29.2296 9.65006 29.6066C12.3141 30.4018 13.496 32.9013 14.598 35.2353C14.7991 35.6587 14.9947 36.0767 15.1986 36.4756C16.9783 39.9522 18.7167 43.4288 20.4551 46.9054C20.6094 47.2501 20.8408 47.7196 21.1273 48.295C21.3807 48.8052 21.6755 49.3996 21.9868 50.0536L22.4469 50.9981C22.626 51.3672 22.783 51.682 22.8987 51.9344C23.7059 49.9532 24.5242 47.9802 25.3396 46.0044C26.1579 44.0313 26.9761 42.0583 27.7833 40.0744C27.8054 39.9658 27.9982 39.5424 28.2902 38.9046C28.5354 38.3646 28.8495 37.6725 29.1911 36.8854L29.541 36.0523C30.6154 33.474 31.9103 30.3719 34.7809 29.5252C35.7999 29.2339 36.8856 29.2624 37.8873 29.6067C38.889 29.951 39.757 30.5941 40.3708 31.4466C40.9907 32.3043 41.2386 33.2867 41.2799 34.2692C41.313 36.4403 40.2496 38.7689 39.3349 40.7664C39.1145 41.2549 38.8996 41.7217 38.7151 42.1614L38.6049 42.4002C38.3514 42.962 37.6627 44.4818 36.478 46.9868C36.051 47.8825 35.6405 48.7835 35.2245 49.6927L34.533 51.1989Z"
                            fill="currentColor"></path>
                        </svg>