<?xml version="1.0" encoding="UTF-8"?>
<svg width="150"
    height="50" viewBox="0 0 226 50" fill="none" xmlns="http://www.w3.org/2000/svg">
    <path
        d="M174.98 12.8765C174.98 11.4746 176.142 10.3843 177.674 10.3843C179.311 10.3843 180.42 11.5265 180.42 12.8765C180.42 14.2264 179.258 15.3687 177.674 15.3687C176.142 15.4206 174.98 14.2264 174.98 12.8765ZM179.628 18.3282C179.733 18.3282 179.839 18.432 179.839 18.5359V34.891C179.839 34.9949 179.733 35.0987 179.628 35.0987H175.772C175.667 35.0987 175.561 34.9949 175.561 34.891V18.5359C175.561 18.432 175.667 18.3282 175.772 18.3282H179.628ZM38.9259 31.0489L52.1299 14.538C52.1827 14.486 52.1299 14.3822 52.0242 14.3822H39.2956C39.1899 14.3822 39.0843 14.2784 39.0843 14.1745V10.592C39.0843 10.4881 39.1899 10.3843 39.2956 10.3843H58.2037C58.3094 10.3843 58.415 10.4881 58.415 10.592V14.2784C58.415 14.3303 58.415 14.3822 58.3622 14.4341L44.9997 30.945C44.9469 30.9969 44.9997 31.1008 45.1053 31.1008H58.2037C58.3094 31.1008 58.415 31.2046 58.415 31.3085V34.891C58.415 34.9949 58.3094 35.0987 58.2037 35.0987H39.0843C38.9787 35.0987 38.873 34.9949 38.873 34.891V31.2046C38.873 31.1527 38.9259 31.1008 38.9259 31.0489ZM89.4708 10.592C89.4708 10.4881 89.5765 10.3843 89.6821 10.3843H97.5517C104.787 10.3843 107.587 12.9803 107.587 17.4455C107.587 22.0665 104.206 23.9876 101.935 24.2472C101.883 24.2472 101.83 24.2991 101.883 24.351L108.273 34.8391C108.326 34.9429 108.273 35.0987 108.115 35.0987H103.15C103.045 35.0987 102.939 35.0468 102.939 34.943L97.2348 24.7145C97.182 24.6626 97.1291 24.6107 97.0763 24.6107H94.013C93.9602 24.6107 93.9074 24.6626 93.9074 24.7145V34.891C93.9074 34.9949 93.8017 35.0987 93.6961 35.0987H89.6293C89.5236 35.0987 89.418 34.9949 89.418 34.891V10.592H89.4708ZM97.7101 20.8204C100.985 20.8204 103.15 20.0935 103.15 17.3936C103.15 15.1091 101.619 14.1226 97.8158 14.1226H94.0658C94.013 14.1226 93.9602 14.1745 93.9602 14.2264V20.7166C93.9602 20.7685 94.013 20.8204 94.0658 20.8204H97.7101ZM139.91 23.2088C139.805 23.3126 139.699 23.3126 139.593 23.2088C139.118 22.7934 137.903 21.7031 136.266 21.7031C134.364 21.7031 131.512 22.9492 131.512 26.7394C131.512 30.6335 134.629 31.7758 136.371 31.7758C137.956 31.7758 139.276 30.7893 139.646 30.3739C139.752 30.2701 139.857 30.2701 139.963 30.3739L142.498 33.0738C142.604 33.1776 142.551 33.2815 142.498 33.3853C141.231 34.5276 139.224 35.566 136.53 35.566C132.199 35.566 127.287 32.8142 127.287 26.7913C127.287 20.9243 131.935 18.0167 136.53 18.0167C139.065 18.0167 141.019 19.0032 142.551 20.405C142.657 20.5089 142.657 20.6127 142.551 20.7166L139.91 23.2088ZM112.71 28.1932C112.657 28.1932 112.604 28.2451 112.604 28.2971C112.816 30.2181 114.928 32.1392 117.146 32.1392C119.47 32.1392 120.579 31.2046 121.583 30.0104C121.636 29.9066 121.794 29.9066 121.847 29.9585L124.541 31.9834C124.646 32.0354 124.646 32.1911 124.593 32.295C122.851 34.268 120.632 35.4622 117.516 35.4622C112.604 35.4622 108.273 32.1911 108.273 26.6875C108.273 21.3915 112.34 17.9128 117.252 17.9128C121.9 17.9128 125.491 21.755 125.491 26.999V27.9336C125.491 28.0374 125.386 28.1413 125.28 28.1413L112.71 28.1932ZM121.213 25.026C121.266 25.026 121.319 24.9741 121.319 24.9222C121.319 22.8973 119.47 21.0281 117.146 21.0281C114.823 21.0281 112.921 22.43 112.657 24.8703C112.657 24.9222 112.71 24.9741 112.763 24.9741L121.213 25.026ZM200.12 28.1932C200.068 28.1932 200.015 28.2451 200.015 28.2971C200.226 30.2181 202.339 32.1392 204.557 32.1392C206.881 32.1392 207.99 31.2046 208.994 30.0104C209.046 29.9066 209.205 29.9066 209.258 29.9585L211.951 31.9834C212.057 32.0354 212.057 32.1911 212.004 32.295C210.261 34.268 208.043 35.4622 204.927 35.4622C200.015 35.4622 195.684 32.1911 195.684 26.6875C195.684 21.3915 199.751 17.9128 204.663 17.9128C209.31 17.9128 212.902 21.755 212.902 26.999V27.9336C212.902 28.0374 212.796 28.1413 212.691 28.1413L200.12 28.1932ZM208.624 25.026C208.677 25.026 208.729 24.9741 208.729 24.9222C208.729 22.8973 206.881 21.0281 204.557 21.0281C202.233 21.0281 200.332 22.43 200.068 24.8703C200.068 24.9222 200.12 24.9741 200.173 24.9741L208.624 25.026ZM144.928 18.3282H148.255C148.361 18.3282 148.466 18.3801 148.466 18.484L148.942 20.9762H148.994C150.79 17.5494 155.016 18.0686 155.385 18.1205C155.491 18.1205 155.544 18.2244 155.544 18.432V21.6512C155.544 21.755 155.438 21.8588 155.332 21.8588C155.332 21.8588 154.54 21.7031 153.854 21.7031C151.107 21.7031 149.153 24.1434 148.942 27.4144V34.8391C148.942 34.9429 148.836 35.0468 148.73 35.0468H144.875C144.769 35.0468 144.664 34.9429 144.664 34.8391V18.5359C144.716 18.432 144.822 18.3282 144.928 18.3282ZM215.384 18.3282H218.712C218.817 18.3282 218.923 18.3801 218.923 18.484L219.398 20.9762H219.451C221.247 17.5494 225.472 18.0686 225.842 18.1205C225.947 18.1205 226 18.2244 226 18.432V21.6512C226 21.755 225.895 21.8588 225.789 21.8588C225.789 21.8588 224.997 21.7031 224.31 21.7031C221.564 21.7031 219.61 24.1434 219.398 27.4144V34.8391C219.398 34.9429 219.293 35.0468 219.187 35.0468H215.331C215.226 35.0468 215.12 34.9429 215.12 34.8391V18.5359C215.173 18.432 215.279 18.3282 215.384 18.3282ZM182.057 21.7031V18.5359C182.057 18.432 182.163 18.3282 182.269 18.3282H185.49C185.543 18.3282 185.596 18.2763 185.596 18.2244V15.161C185.596 15.0572 185.649 15.0053 185.754 14.9533L189.61 13.5515C189.768 13.4995 189.874 13.6034 189.874 13.7591V18.2244C189.874 18.2763 189.927 18.3282 189.98 18.3282H194.363C194.469 18.3282 194.575 18.432 194.575 18.5359V21.7031C194.575 21.8069 194.469 21.9108 194.363 21.9108H189.98C189.927 21.9108 189.874 21.9627 189.874 22.0146V29.2316C189.874 30.6854 190.138 31.9315 192.251 31.9315C193.043 31.9315 193.835 31.7758 194.363 31.5681C194.469 31.5162 194.575 31.62 194.575 31.7238V34.7872C194.575 34.891 194.522 34.9949 194.416 35.0468C193.73 35.3583 192.409 35.5141 191.195 35.5141C189.135 35.5141 187.761 35.0987 186.969 34.3199C186.23 33.593 185.649 32.4507 185.649 29.5951V22.0146C185.649 21.9627 185.596 21.9108 185.543 21.9108H182.321C182.163 21.9108 182.057 21.8069 182.057 21.7031ZM164.892 31.8796C163.202 31.8796 161.776 30.8412 161.723 28.972V18.5359C161.723 18.432 161.618 18.3282 161.512 18.3282H157.656C157.551 18.3282 157.445 18.432 157.445 18.5359V28.5047C157.445 32.6065 160.561 35.5141 164.839 35.5141H164.945C169.223 35.5141 172.339 32.6065 172.339 28.5047V18.5359C172.339 18.432 172.234 18.3282 172.128 18.3282H168.272C168.167 18.3282 168.061 18.432 168.061 18.5359V28.972C168.008 30.8412 166.582 31.8796 164.892 31.8796ZM73.1507 33.0738C73.1507 33.0219 73.2563 32.9699 73.3091 33.0219C74.4182 34.4237 76.6365 35.5141 79.0661 35.5141C83.1857 35.5141 87.3054 32.3469 87.3054 26.7394C87.3054 20.7685 83.1857 17.9648 78.9076 17.9648C76.214 17.9648 74.1542 19.2628 73.0978 20.8204C73.045 20.8723 72.9922 20.8723 72.9394 20.7685L72.4641 18.5359C72.4641 18.432 72.3584 18.3801 72.2528 18.3801H69.1366C69.031 18.3801 68.9254 18.484 68.9254 18.5878V42.8869C68.9254 42.9907 69.031 43.0946 69.1366 43.0946H72.9922C73.0978 43.0946 73.2035 42.9907 73.2035 42.8869V33.0738H73.1507ZM78.5379 31.7238C75.7386 31.7238 73.5204 29.8547 73.5204 26.6875C73.5204 23.5203 75.7386 21.6512 78.5379 21.6512C80.1752 21.6512 83.1329 22.7415 83.1329 26.6875C83.1329 30.6335 80.0696 31.7238 78.5379 31.7238ZM60.6333 12.8765C60.6333 11.4746 61.7952 10.3843 63.3269 10.3843C64.9642 10.3843 66.0733 11.5265 66.0733 12.8765C66.0733 14.2264 64.9114 15.3687 63.3269 15.3687C61.7952 15.4206 60.6333 14.2264 60.6333 12.8765ZM65.2811 18.3282C65.3867 18.3282 65.4923 18.432 65.4923 18.5359V34.891C65.4923 34.9949 65.3867 35.0987 65.2811 35.0987H61.4255C61.3199 35.0987 61.2142 34.9949 61.2142 34.891V18.5359C61.2142 18.432 61.3199 18.3282 61.4255 18.3282H65.2811Z"
        fill="currentColor"></path>
    <path fill-rule="evenodd" clip-rule="evenodd"
        d="M27.9397 13.7591C27.6228 13.6552 27.2531 13.7072 26.8834 13.811L25.4573 14.2783V1.24611C25.4573 0.571132 24.8764 0 24.1897 0H5.44005C4.75344 0 4.17247 0.571132 4.17247 1.24611V14.3302L2.74643 13.8629C2.37672 13.7591 2.00701 13.7072 1.69011 13.811C1.16195 13.9148 0 14.4341 0 16.459V27.3624C0.158448 28.297 0.792241 29.3873 2.21827 29.3873H6.97172C7.44706 29.9585 8.60902 30.893 10.8273 31.0488C10.8801 32.6584 11.8308 34.0083 13.2568 34.5794V37.6428C13.2568 37.6947 13.204 37.7466 13.1512 37.7466C6.49637 37.9543 2.27109 40.0312 1.05632 40.7061C0.316896 41.1215 0.158448 42.0042 0.158448 42.5753V44.9636C0.211264 45.7944 0.897873 46.4694 1.79575 46.4694C2.58799 46.4694 3.2746 45.7944 3.32741 45.0156C3.38023 44.2368 2.85207 43.6137 2.11264 43.406C2.05983 43.406 2.00701 43.3541 2.00701 43.3022V42.4195C2.00701 42.2118 2.11264 42.0042 2.32391 41.9003C4.11965 40.9138 8.71465 40.4465 12.2005 40.2388H13.204C13.2568 40.2388 13.3096 40.2908 13.3096 40.3427C13.4681 43.0945 13.785 45.4309 13.8906 46.8847H13.785C13.204 46.8847 12.6759 47.5597 12.6759 48.4424C12.6759 49.325 13.204 50 13.785 50H15.8976C16.4786 50 17.0068 49.325 17.0068 48.4424C17.0068 47.5597 16.4786 46.8847 15.8976 46.8847H15.792C15.792 46.8847 16.1617 43.0945 16.373 40.3427C16.373 40.2908 16.4258 40.2388 16.4786 40.2388H17.4821C20.968 40.3946 25.563 40.9138 27.3587 41.9003C27.57 42.0042 27.6756 42.2118 27.6756 42.4195V43.3022C27.6756 43.3541 27.6228 43.406 27.57 43.406C26.8306 43.5618 26.3024 44.2368 26.3552 45.0156C26.408 45.7944 27.0946 46.4694 27.8869 46.4694C28.7319 46.4694 29.4714 45.8463 29.5242 44.9636V42.5753C29.5242 42.0042 29.3657 41.1734 28.6263 40.7061C27.4115 40.0312 23.1334 37.9543 16.5314 37.6947C16.4786 37.6947 16.4258 37.6428 16.4258 37.5909V34.5275C17.8518 33.9564 18.8025 32.6064 18.8553 30.9969C21.0208 30.8411 22.1827 29.8546 22.7109 29.3354H27.4643C28.8904 29.3354 29.5242 28.2451 29.6826 27.3105V16.4071C29.6298 14.3821 28.4678 13.9148 27.9397 13.7591ZM4.17247 25.0779L2.00701 26.6874C1.95419 26.7394 1.90138 26.6874 1.90138 26.6355V16.4071C1.90138 15.9917 1.95419 15.4725 2.16546 15.5244L4.06684 16.1475C4.11965 16.1475 4.17247 16.2513 4.17247 16.3032V25.0779ZM27.6756 26.6874L25.5101 25.0779V16.3551C25.5101 16.3032 25.563 16.2513 25.6158 16.1994L27.5172 15.5763C27.7812 15.5244 27.7812 16.0436 27.7812 16.459V26.6874C27.7812 26.6874 27.7284 26.7394 27.6756 26.6874Z"
        fill="currentColor"></path>
</svg>