<?xml version="1.0" encoding="UTF-8"?> <svg xmlns="http://www.w3.org/2000/svg" width="200" height="46" viewBox="0 0 200 46" fill="none"><path d="M154.849 11.8581C154.849 10.6025 155.878 9.62598 157.233 9.62598C158.682 9.62598 159.664 10.649 159.664 11.8581C159.664 13.0671 158.635 14.0901 157.233 14.0901C155.878 14.1366 154.849 13.0671 154.849 11.8581ZM158.962 16.7407C159.056 16.7407 159.149 16.8337 159.149 16.9267V31.5748C159.149 31.6678 159.056 31.7608 158.962 31.7608H155.55C155.457 31.7608 155.363 31.6678 155.363 31.5748V16.9267C155.363 16.8337 155.457 16.7407 155.55 16.7407H158.962ZM34.4474 28.1336L46.1324 13.3461C46.1791 13.2996 46.1324 13.2066 46.0389 13.2066H34.7746C34.6811 13.2066 34.5877 13.1136 34.5877 13.0206V9.81198C34.5877 9.71898 34.6811 9.62598 34.7746 9.62598H51.5075C51.601 9.62598 51.6944 9.71898 51.6944 9.81198V13.1136C51.6944 13.1601 51.6944 13.2066 51.6477 13.2531L39.8225 28.0406C39.7758 28.0871 39.8225 28.1802 39.916 28.1802H51.5075C51.601 28.1802 51.6944 28.2732 51.6944 28.3662V31.5748C51.6944 31.6678 51.601 31.7608 51.5075 31.7608H34.5877C34.4942 31.7608 34.4007 31.6678 34.4007 31.5748V28.2732C34.4007 28.2267 34.4474 28.1802 34.4474 28.1336ZM79.1775 9.81198C79.1775 9.71898 79.271 9.62598 79.3644 9.62598H86.3287C92.732 9.62598 95.2093 11.9511 95.2093 15.9502C95.2093 20.0889 92.2179 21.8094 90.2081 22.0419C90.1614 22.0419 90.1146 22.0884 90.1613 22.1349L95.8169 31.5283C95.8636 31.6213 95.8169 31.7608 95.6767 31.7608H91.2831C91.1896 31.7608 91.0961 31.7143 91.0961 31.6213L86.0482 22.4604C86.0015 22.4139 85.9548 22.3674 85.908 22.3674H83.1971C83.1504 22.3674 83.1036 22.4139 83.1036 22.4604V31.5748C83.1036 31.6678 83.0102 31.7608 82.9167 31.7608H79.3177C79.2242 31.7608 79.1307 31.6678 79.1307 31.5748V9.81198H79.1775ZM86.4689 18.9728C89.3668 18.9728 91.2831 18.3218 91.2831 15.9037C91.2831 13.8576 89.9277 12.9741 86.5624 12.9741H83.2439C83.1971 12.9741 83.1504 13.0206 83.1504 13.0671V18.8798C83.1504 18.9263 83.1971 18.9728 83.2439 18.9728H86.4689ZM123.814 21.1119C123.721 21.2049 123.627 21.2049 123.534 21.1119C123.113 20.7399 122.038 19.7633 120.589 19.7633C118.906 19.7633 116.382 20.8794 116.382 24.274C116.382 27.7616 119.14 28.7847 120.682 28.7847C122.085 28.7847 123.253 27.9011 123.58 27.5291C123.674 27.4361 123.767 27.4361 123.861 27.5291L126.104 29.9472C126.198 30.0402 126.151 30.1332 126.104 30.2262C124.983 31.2493 123.206 32.1793 120.823 32.1793C116.99 32.1793 112.643 29.7147 112.643 24.3205C112.643 19.0658 116.756 16.4617 120.823 16.4617C123.066 16.4617 124.796 17.3453 126.151 18.6008C126.245 18.6938 126.245 18.7868 126.151 18.8798L123.814 21.1119ZM99.743 25.5761C99.6963 25.5761 99.6495 25.6226 99.6495 25.6691C99.8365 27.3896 101.706 29.1102 103.669 29.1102C105.726 29.1102 106.707 28.2732 107.595 27.2036C107.642 27.1106 107.782 27.1106 107.829 27.1571L110.213 28.9707C110.306 29.0172 110.306 29.1567 110.259 29.2497C108.717 31.0168 106.754 32.0863 103.996 32.0863C99.6495 32.0863 95.8169 29.1567 95.8169 24.2275C95.8169 19.4843 99.4158 16.3687 103.763 16.3687C107.876 16.3687 111.054 19.8098 111.054 24.5065V25.3435C111.054 25.4366 110.961 25.5296 110.867 25.5296L99.743 25.5761ZM107.268 22.7395C107.315 22.7395 107.362 22.693 107.362 22.6465C107.362 20.8329 105.726 19.1588 103.669 19.1588C101.613 19.1588 99.93 20.4144 99.6963 22.5999C99.6963 22.6465 99.743 22.693 99.7898 22.693L107.268 22.7395ZM177.097 25.5761C177.051 25.5761 177.004 25.6226 177.004 25.6691C177.191 27.3896 179.061 29.1102 181.024 29.1102C183.08 29.1102 184.062 28.2732 184.95 27.2036C184.997 27.1106 185.137 27.1106 185.183 27.1571L187.567 28.9707C187.661 29.0172 187.661 29.1567 187.614 29.2497C186.072 31.0168 184.108 32.0863 181.351 32.0863C177.004 32.0863 173.171 29.1567 173.171 24.2275C173.171 19.4843 176.77 16.3687 181.117 16.3687C185.23 16.3687 188.409 19.8098 188.409 24.5065V25.3435C188.409 25.4366 188.315 25.5296 188.222 25.5296L177.097 25.5761ZM184.623 22.7395C184.669 22.7395 184.716 22.693 184.716 22.6465C184.716 20.8329 183.08 19.1588 181.024 19.1588C178.967 19.1588 177.284 20.4144 177.051 22.5999C177.051 22.6465 177.097 22.693 177.144 22.693L184.623 22.7395ZM128.254 16.7407H131.199C131.292 16.7407 131.386 16.7872 131.386 16.8802L131.807 19.1123H131.853C133.442 16.0432 137.182 16.5082 137.509 16.5547C137.602 16.5547 137.649 16.6477 137.649 16.8337V19.7168C137.649 19.8098 137.556 19.9028 137.462 19.9028C137.462 19.9028 136.761 19.7633 136.153 19.7633C133.723 19.7633 131.994 21.9489 131.807 24.8785V31.5283C131.807 31.6213 131.713 31.7143 131.62 31.7143H128.208C128.114 31.7143 128.021 31.6213 128.021 31.5283V16.9267C128.067 16.8337 128.161 16.7407 128.254 16.7407ZM190.605 16.7407H193.55C193.643 16.7407 193.737 16.7872 193.737 16.8802L194.158 19.1123H194.204C195.793 16.0432 199.533 16.5082 199.86 16.5547C199.953 16.5547 200 16.6477 200 16.8337V19.7168C200 19.8098 199.907 19.9028 199.813 19.9028C199.813 19.9028 199.112 19.7633 198.504 19.7633C196.074 19.7633 194.344 21.9489 194.158 24.8785V31.5283C194.158 31.6213 194.064 31.7143 193.971 31.7143H190.559C190.465 31.7143 190.372 31.6213 190.372 31.5283V16.9267C190.418 16.8337 190.512 16.7407 190.605 16.7407ZM161.112 19.7633V16.9267C161.112 16.8337 161.206 16.7407 161.299 16.7407H164.151C164.197 16.7407 164.244 16.6942 164.244 16.6477V13.9041C164.244 13.8111 164.291 13.7646 164.384 13.7181L167.796 12.4626C167.936 12.4161 168.03 12.5091 168.03 12.6486V16.6477C168.03 16.6942 168.077 16.7407 168.123 16.7407H172.003C172.096 16.7407 172.19 16.8337 172.19 16.9267V19.7633C172.19 19.8563 172.096 19.9494 172.003 19.9494H168.123C168.077 19.9494 168.03 19.9959 168.03 20.0424V26.5061C168.03 27.8081 168.264 28.9242 170.133 28.9242C170.834 28.9242 171.535 28.7847 172.003 28.5987C172.096 28.5522 172.19 28.6452 172.19 28.7382V31.4818C172.19 31.5748 172.143 31.6678 172.05 31.7143C171.442 31.9933 170.273 32.1328 169.198 32.1328C167.376 32.1328 166.16 31.7608 165.459 31.0633C164.805 30.4122 164.291 29.3892 164.291 26.8316V20.0424C164.291 19.9959 164.244 19.9494 164.197 19.9494H161.346C161.206 19.9494 161.112 19.8563 161.112 19.7633ZM145.922 28.8777C144.426 28.8777 143.164 27.9476 143.118 26.2736V16.9267C143.118 16.8337 143.024 16.7407 142.931 16.7407H139.519C139.425 16.7407 139.332 16.8337 139.332 16.9267V25.8551C139.332 29.5287 142.089 32.1328 145.875 32.1328H145.969C149.755 32.1328 152.512 29.5287 152.512 25.8551V16.9267C152.512 16.8337 152.419 16.7407 152.325 16.7407H148.913C148.82 16.7407 148.726 16.8337 148.726 16.9267V26.2736C148.68 27.9476 147.418 28.8777 145.922 28.8777ZM64.7349 29.9472C64.7349 29.9007 64.8283 29.8542 64.8751 29.9007C65.8566 31.1563 67.8197 32.1328 69.9697 32.1328C73.6154 32.1328 77.2612 29.2962 77.2612 24.274C77.2612 18.9263 73.6154 16.4152 69.8295 16.4152C67.4458 16.4152 65.6229 17.5778 64.6881 18.9728C64.6414 19.0193 64.5947 19.0193 64.5479 18.9263L64.1272 16.9267C64.1272 16.8337 64.0338 16.7872 63.9403 16.7872H61.1826C61.0892 16.7872 60.9957 16.8802 60.9957 16.9732V38.736C60.9957 38.829 61.0892 38.922 61.1826 38.922H64.5946C64.6881 38.922 64.7816 38.829 64.7816 38.736V29.9472H64.7349ZM69.5023 28.7382C67.0251 28.7382 65.062 27.0641 65.062 24.2275C65.062 21.3909 67.0251 19.7168 69.5023 19.7168C70.9513 19.7168 73.5687 20.6934 73.5687 24.2275C73.5687 27.7616 70.8578 28.7382 69.5023 28.7382ZM53.6575 11.8581C53.6575 10.6025 54.6858 9.62598 56.0413 9.62598C57.4902 9.62598 58.4717 10.649 58.4717 11.8581C58.4717 13.0671 57.4434 14.0901 56.0413 14.0901C54.6858 14.1366 53.6575 13.0671 53.6575 11.8581ZM57.7706 16.7407C57.8641 16.7407 57.9576 16.8337 57.9576 16.9267V31.5748C57.9576 31.6678 57.8641 31.7608 57.7706 31.7608H54.3586C54.2651 31.7608 54.1717 31.6678 54.1717 31.5748V16.9267C54.1717 16.8337 54.2651 16.7407 54.3586 16.7407H57.7706Z" fill="#1B0B3B"></path><path fill-rule="evenodd" clip-rule="evenodd" d="M24.7254 12.6486C24.4449 12.5556 24.1178 12.6021 23.7906 12.6951L22.5286 13.1136V1.44172C22.5286 0.837202 22.0145 0.325684 21.4069 0.325684H4.81421C4.20659 0.325684 3.69245 0.837202 3.69245 1.44172V13.1601L2.43047 12.7416C2.10329 12.6486 1.77611 12.6021 1.49568 12.6951C1.02828 12.7881 0 13.2532 0 15.0667V24.8321C0.14022 25.6691 0.701098 26.6456 1.96307 26.6456H6.16966C6.59032 27.1572 7.6186 27.9942 9.58167 28.1337C9.62841 29.5752 10.4697 30.7843 11.7317 31.2958V34.0394C11.7317 34.0859 11.685 34.1324 11.6382 34.1324C5.749 34.3184 2.00981 36.1785 0.934797 36.783C0.280439 37.155 0.14022 37.9455 0.14022 38.4571V40.5961C0.186959 41.3402 0.794578 41.9447 1.58916 41.9447C2.29025 41.9447 2.89787 41.3402 2.94461 40.6426C2.99135 39.9451 2.52395 39.3871 1.86959 39.2011C1.82285 39.2011 1.77611 39.1546 1.77611 39.1081V38.3176C1.77611 38.1315 1.86959 37.9455 2.05655 37.8525C3.64571 36.969 7.71208 36.5505 10.7969 36.3645H11.685C11.7317 36.3645 11.7784 36.411 11.7784 36.4575C11.9187 38.9221 12.1991 41.0147 12.2926 42.3167H12.1991C11.685 42.3167 11.2176 42.9212 11.2176 43.7118C11.2176 44.5023 11.685 45.1068 12.1991 45.1068H14.0687C14.5828 45.1068 15.0502 44.5023 15.0502 43.7118C15.0502 42.9212 14.5828 42.3167 14.0687 42.3167H13.9752C13.9752 42.3167 14.3024 38.9221 14.4894 36.4575C14.4894 36.411 14.5361 36.3645 14.5828 36.3645H15.4709C18.5557 36.504 22.6221 36.969 24.2112 37.8525C24.3982 37.9455 24.4917 38.1315 24.4917 38.3176V39.1081C24.4917 39.1546 24.4449 39.2011 24.3982 39.2011C23.7439 39.3406 23.2765 39.9451 23.3232 40.6426C23.3699 41.3402 23.9775 41.9447 24.6786 41.9447C25.4265 41.9447 26.0808 41.3867 26.1276 40.5961V38.4571C26.1276 37.9455 25.9874 37.2015 25.333 36.783C24.258 36.1785 20.4721 34.3184 14.6296 34.0859C14.5828 34.0859 14.5361 34.0394 14.5361 33.9929V31.2493C15.7981 30.7378 16.6394 29.5287 16.6861 28.0872C18.6025 27.9477 19.6307 27.0642 20.0981 26.5991H24.3047C25.5667 26.5991 26.1276 25.6226 26.2678 24.7856V15.0202C26.2211 13.2066 25.1928 12.7881 24.7254 12.6486ZM3.69245 22.786L1.77611 24.2276C1.72937 24.2741 1.68263 24.2275 1.68263 24.181V15.0202C1.68263 14.6482 1.72937 14.1832 1.91633 14.2297L3.59897 14.7877C3.64571 14.7877 3.69245 14.8807 3.69245 14.9272V22.786ZM24.4917 24.2276L22.5754 22.786V14.9737C22.5754 14.9272 22.6221 14.8807 22.6688 14.8342L24.3515 14.2762C24.5852 14.2297 24.5852 14.6947 24.5852 15.0667V24.2276C24.5852 24.2276 24.5384 24.2741 24.4917 24.2276Z" fill="#1B0B3B"></path></svg> 